<mxfile host="Electron" agent="Mozilla/5.0 (Windows NT 10.0; Win64; x64) AppleWebKit/537.36 (KHTML, like Gecko) draw.io/26.2.2 Chrome/134.0.6998.178 Electron/35.1.2 Safari/537.36" version="26.2.2">
  <diagram name="Page-1" id="Fp8H8w0BobFtLTU7BYkm">
    <mxGraphModel dx="4567" dy="2959" grid="1" gridSize="10" guides="1" tooltips="1" connect="1" arrows="1" fold="1" page="1" pageScale="1" pageWidth="827" pageHeight="1169" math="0" shadow="0">
      <root>
        <mxCell id="0" />
        <mxCell id="1" parent="0" />
        <mxCell id="J9O3w2T6ldLMy-nIrZDR-1" value="" style="strokeWidth=1;shadow=0;dashed=0;align=center;html=1;shape=mxgraph.mockup.containers.browserWindow;rSize=0;strokeColor=#666666;mainText=,;recursiveResize=0;rounded=0;labelBackgroundColor=none;fontFamily=Verdana;fontSize=12" parent="1" vertex="1">
          <mxGeometry x="-590" y="-40" width="1065" height="820" as="geometry" />
        </mxCell>
        <mxCell id="J9O3w2T6ldLMy-nIrZDR-2" value="" style="rounded=1;whiteSpace=wrap;html=1;arcSize=4;" parent="J9O3w2T6ldLMy-nIrZDR-1" vertex="1">
          <mxGeometry x="15" y="475" width="265" height="250" as="geometry" />
        </mxCell>
        <mxCell id="J9O3w2T6ldLMy-nIrZDR-3" value="Site admin" style="strokeWidth=1;shadow=0;dashed=0;align=center;html=1;shape=mxgraph.mockup.containers.anchor;fontSize=17;fontColor=#666666;align=left;" parent="J9O3w2T6ldLMy-nIrZDR-1" vertex="1">
          <mxGeometry x="60" y="12" width="110" height="26" as="geometry" />
        </mxCell>
        <mxCell id="J9O3w2T6ldLMy-nIrZDR-4" value="&lt;a href=&quot;https://cms-stg2.ipbasevn.com/admin/&quot;&gt;Site administration | Admin&lt;/a&gt;" style="strokeWidth=1;shadow=0;dashed=0;align=center;html=1;shape=mxgraph.mockup.containers.anchor;rSize=0;fontSize=17;fontColor=#666666;align=left;" parent="J9O3w2T6ldLMy-nIrZDR-1" vertex="1">
          <mxGeometry x="130" y="60" width="250" height="26" as="geometry" />
        </mxCell>
        <mxCell id="J9O3w2T6ldLMy-nIrZDR-5" value="IPTV Admin" style="text;html=1;points=[];align=left;verticalAlign=top;spacingTop=-4;fontSize=30;fontFamily=Verdana" parent="J9O3w2T6ldLMy-nIrZDR-1" vertex="1">
          <mxGeometry x="70" y="135" width="180" height="50" as="geometry" />
        </mxCell>
        <mxCell id="J9O3w2T6ldLMy-nIrZDR-6" value="Search" style="strokeWidth=1;shadow=0;dashed=0;align=center;html=1;shape=mxgraph.mockup.forms.searchBox;strokeColor=#999999;mainText=;strokeColor2=#008cff;fontColor=#666666;fontSize=17;align=left;spacingLeft=3;rounded=0;labelBackgroundColor=none;" parent="J9O3w2T6ldLMy-nIrZDR-1" vertex="1">
          <mxGeometry x="650" y="135" width="220" height="30" as="geometry" />
        </mxCell>
        <mxCell id="J9O3w2T6ldLMy-nIrZDR-7" value="" style="verticalLabelPosition=bottom;shadow=0;dashed=0;align=center;html=1;verticalAlign=top;strokeWidth=1;shape=mxgraph.mockup.markup.line;strokeColor=#999999;rounded=0;labelBackgroundColor=none;fillColor=#ffffff;fontFamily=Verdana;fontSize=12;fontColor=#000000;" parent="J9O3w2T6ldLMy-nIrZDR-1" vertex="1">
          <mxGeometry y="230" width="1050" height="20" as="geometry" />
        </mxCell>
        <mxCell id="J9O3w2T6ldLMy-nIrZDR-8" value="" style="verticalLabelPosition=bottom;shadow=0;dashed=0;align=center;html=1;verticalAlign=top;strokeWidth=1;shape=mxgraph.mockup.markup.line;strokeColor=#999999;rounded=0;labelBackgroundColor=none;fillColor=#ffffff;fontFamily=Verdana;fontSize=12;fontColor=#000000;" parent="J9O3w2T6ldLMy-nIrZDR-1" vertex="1">
          <mxGeometry x="7.5" y="745" width="1050" height="20" as="geometry" />
        </mxCell>
        <mxCell id="J9O3w2T6ldLMy-nIrZDR-9" value="&lt;h5 style=&quot;box-sizing: border-box; font-family: &amp;quot;Source Sans Pro&amp;quot;, -apple-system, BlinkMacSystemFont, &amp;quot;Segoe UI&amp;quot;, Roboto, &amp;quot;Helvetica Neue&amp;quot;, Arial, sans-serif, &amp;quot;Apple Color Emoji&amp;quot;, &amp;quot;Segoe UI Emoji&amp;quot;, &amp;quot;Segoe UI Symbol&amp;quot;; font-weight: 500; line-height: 1.2; color: rgb(33, 37, 41); font-size: 1.25rem; text-wrap-mode: wrap; background-color: rgb(255, 255, 255); margin: 0px !important;&quot; class=&quot;m-0&quot;&gt;App&lt;/h5&gt;" style="text;html=1;points=[];align=left;verticalAlign=top;spacingTop=-4;fontSize=15;fontFamily=Verdana" parent="J9O3w2T6ldLMy-nIrZDR-1" vertex="1">
          <mxGeometry x="35" y="490" width="170" height="30" as="geometry" />
        </mxCell>
        <mxCell id="J9O3w2T6ldLMy-nIrZDR-10" value="&lt;h4 style=&quot;box-sizing: border-box; margin-top: 0px; font-family: &amp;quot;Source Sans Pro&amp;quot;, -apple-system, BlinkMacSystemFont, &amp;quot;Segoe UI&amp;quot;, Roboto, &amp;quot;Helvetica Neue&amp;quot;, Arial, sans-serif, &amp;quot;Apple Color Emoji&amp;quot;, &amp;quot;Segoe UI Emoji&amp;quot;, &amp;quot;Segoe UI Symbol&amp;quot;; font-weight: 500; color: rgb(33, 37, 41); font-size: 1.5rem; text-wrap-mode: wrap; background-color: rgb(244, 246, 249); margin-bottom: 1rem !important;&quot; class=&quot;mb-3&quot;&gt;Recent Actions&lt;/h4&gt;" style="text;html=1;points=[];align=left;verticalAlign=top;spacingTop=-4;fontSize=15;fontFamily=Verdana" parent="J9O3w2T6ldLMy-nIrZDR-1" vertex="1">
          <mxGeometry x="877.5" y="267.5" width="85" height="65" as="geometry" />
        </mxCell>
        <mxCell id="J9O3w2T6ldLMy-nIrZDR-11" value="&lt;font style=&quot;color: light-dark(rgb(0, 0, 0), rgb(60, 141, 188));&quot;&gt;Home&lt;/font&gt;" style="strokeWidth=1;shadow=0;dashed=0;align=center;html=1;shape=mxgraph.mockup.navigation.anchor;fontSize=17;fontColor=#666666;fontStyle=1;strokeColor=light-dark(#000000,#3C8DBC);" parent="J9O3w2T6ldLMy-nIrZDR-1" vertex="1">
          <mxGeometry x="147.5" y="255" width="60" height="30" as="geometry" />
        </mxCell>
        <mxCell id="J9O3w2T6ldLMy-nIrZDR-12" value="&gt;" style="strokeWidth=1;shadow=0;dashed=0;align=center;html=1;shape=mxgraph.mockup.navigation.anchor;fontSize=24;fontColor=#aaaaaa;fontStyle=1;" parent="J9O3w2T6ldLMy-nIrZDR-1" vertex="1">
          <mxGeometry x="207.5" y="255" width="20" height="30" as="geometry" />
        </mxCell>
        <mxCell id="J9O3w2T6ldLMy-nIrZDR-13" value="Dashbroad" style="strokeWidth=1;shadow=0;dashed=0;align=center;html=1;shape=mxgraph.mockup.navigation.anchor;fontSize=17;fontColor=#666666;fontStyle=1;" parent="J9O3w2T6ldLMy-nIrZDR-1" vertex="1">
          <mxGeometry x="245" y="255" width="60" height="30" as="geometry" />
        </mxCell>
        <mxCell id="J9O3w2T6ldLMy-nIrZDR-14" value="User" style="text;html=1;points=[];align=left;verticalAlign=top;spacingTop=-4;fontSize=12;fontFamily=Verdana;whiteSpace=wrap;" parent="J9O3w2T6ldLMy-nIrZDR-1" vertex="1">
          <mxGeometry x="952.5" y="145" width="30" height="20" as="geometry" />
        </mxCell>
        <mxCell id="J9O3w2T6ldLMy-nIrZDR-15" value="Icon" style="icon;html=1;image=img/clipart/Gear_128x128.png;arcSize=24;" parent="J9O3w2T6ldLMy-nIrZDR-1" vertex="1">
          <mxGeometry x="20" y="135" width="40" height="40" as="geometry" />
        </mxCell>
        <mxCell id="J9O3w2T6ldLMy-nIrZDR-16" value="" style="verticalLabelPosition=bottom;shadow=0;dashed=0;align=center;html=1;verticalAlign=top;strokeWidth=1;shape=mxgraph.mockup.markup.line;strokeColor=#999999;rounded=0;labelBackgroundColor=none;fillColor=#ffffff;fontFamily=Verdana;fontSize=12;fontColor=#000000;" parent="J9O3w2T6ldLMy-nIrZDR-1" vertex="1">
          <mxGeometry x="27.5" y="520" width="242.5" height="20" as="geometry" />
        </mxCell>
        <mxCell id="J9O3w2T6ldLMy-nIrZDR-17" value="" style="verticalLabelPosition=bottom;shadow=0;dashed=0;align=center;html=1;verticalAlign=top;strokeWidth=1;shape=mxgraph.mockup.markup.line;strokeColor=#999999;rounded=0;labelBackgroundColor=none;fillColor=#ffffff;fontFamily=Verdana;fontSize=12;fontColor=#000000;" parent="J9O3w2T6ldLMy-nIrZDR-1" vertex="1">
          <mxGeometry x="43.75" y="565" width="196.25" height="20" as="geometry" />
        </mxCell>
        <mxCell id="J9O3w2T6ldLMy-nIrZDR-18" value="&lt;a href=&quot;https://cms-stg2.ipbasevn.com/admin/app/rate/&quot; style=&quot;box-sizing: border-box; color: rgb(60, 141, 188); text-decoration-line: none; background-color: rgb(255, 255, 255); font-family: &amp;quot;Source Sans Pro&amp;quot;, -apple-system, BlinkMacSystemFont, &amp;quot;Segoe UI&amp;quot;, Roboto, &amp;quot;Helvetica Neue&amp;quot;, Arial, sans-serif, &amp;quot;Apple Color Emoji&amp;quot;, &amp;quot;Segoe UI Emoji&amp;quot;, &amp;quot;Segoe UI Symbol&amp;quot;; font-size: 16px;&quot;&gt;Rates&lt;/a&gt;" style="text;html=1;points=[];align=left;verticalAlign=top;spacingTop=-4;fontSize=12;fontFamily=Verdana;whiteSpace=wrap;" parent="J9O3w2T6ldLMy-nIrZDR-1" vertex="1">
          <mxGeometry x="43.75" y="585" width="190" height="40" as="geometry" />
        </mxCell>
        <mxCell id="J9O3w2T6ldLMy-nIrZDR-19" value="" style="verticalLabelPosition=bottom;shadow=0;dashed=0;align=center;html=1;verticalAlign=top;strokeWidth=1;shape=mxgraph.mockup.markup.line;strokeColor=#999999;rounded=0;labelBackgroundColor=none;fillColor=#ffffff;fontFamily=Verdana;fontSize=12;fontColor=#000000;" parent="J9O3w2T6ldLMy-nIrZDR-1" vertex="1">
          <mxGeometry x="43.75" y="605" width="196.25" height="20" as="geometry" />
        </mxCell>
        <mxCell id="J9O3w2T6ldLMy-nIrZDR-20" value="&lt;a href=&quot;https://cms-stg2.ipbasevn.com/admin/app/user/&quot; style=&quot;box-sizing: border-box; color: rgb(41, 98, 130); text-decoration-line: none; background-color: rgb(255, 255, 255); font-family: &amp;quot;Source Sans Pro&amp;quot;, -apple-system, BlinkMacSystemFont, &amp;quot;Segoe UI&amp;quot;, Roboto, &amp;quot;Helvetica Neue&amp;quot;, Arial, sans-serif, &amp;quot;Apple Color Emoji&amp;quot;, &amp;quot;Segoe UI Emoji&amp;quot;, &amp;quot;Segoe UI Symbol&amp;quot;; font-size: 16px;&quot;&gt;Users&lt;/a&gt;" style="text;html=1;points=[];align=left;verticalAlign=top;spacingTop=-4;fontSize=12;fontFamily=Verdana;whiteSpace=wrap;" parent="J9O3w2T6ldLMy-nIrZDR-1" vertex="1">
          <mxGeometry x="43.75" y="630" width="190" height="40" as="geometry" />
        </mxCell>
        <mxCell id="J9O3w2T6ldLMy-nIrZDR-21" value="" style="verticalLabelPosition=bottom;shadow=0;dashed=0;align=center;html=1;verticalAlign=top;strokeWidth=1;shape=mxgraph.mockup.markup.line;strokeColor=#999999;rounded=0;labelBackgroundColor=none;fillColor=#ffffff;fontFamily=Verdana;fontSize=12;fontColor=#000000;" parent="J9O3w2T6ldLMy-nIrZDR-1" vertex="1">
          <mxGeometry x="43.75" y="650" width="196.25" height="20" as="geometry" />
        </mxCell>
        <mxCell id="J9O3w2T6ldLMy-nIrZDR-22" value="&lt;a href=&quot;https://cms-stg2.ipbasevn.com/admin/app/zone/&quot; style=&quot;box-sizing: border-box; color: rgb(41, 98, 130); text-decoration-line: none; background-color: rgb(255, 255, 255); font-family: &amp;quot;Source Sans Pro&amp;quot;, -apple-system, BlinkMacSystemFont, &amp;quot;Segoe UI&amp;quot;, Roboto, &amp;quot;Helvetica Neue&amp;quot;, Arial, sans-serif, &amp;quot;Apple Color Emoji&amp;quot;, &amp;quot;Segoe UI Emoji&amp;quot;, &amp;quot;Segoe UI Symbol&amp;quot;; font-size: 16px;&quot;&gt;Zones&lt;/a&gt;" style="text;html=1;points=[];align=left;verticalAlign=top;spacingTop=-4;fontSize=12;fontFamily=Verdana;whiteSpace=wrap;" parent="J9O3w2T6ldLMy-nIrZDR-1" vertex="1">
          <mxGeometry x="43.75" y="670" width="190" height="40" as="geometry" />
        </mxCell>
        <mxCell id="J9O3w2T6ldLMy-nIrZDR-23" value="" style="verticalLabelPosition=bottom;shadow=0;dashed=0;align=center;html=1;verticalAlign=top;strokeWidth=1;shape=mxgraph.mockup.markup.line;strokeColor=#999999;rounded=0;labelBackgroundColor=none;fillColor=#ffffff;fontFamily=Verdana;fontSize=12;fontColor=#000000;" parent="J9O3w2T6ldLMy-nIrZDR-1" vertex="1">
          <mxGeometry x="43.75" y="690" width="196.25" height="20" as="geometry" />
        </mxCell>
        <mxCell id="J9O3w2T6ldLMy-nIrZDR-24" value="&lt;p&gt;&lt;span style=&quot;font-size: 10px;&quot;&gt;Change&lt;/span&gt;&lt;/p&gt;" style="strokeWidth=1;shadow=0;dashed=0;align=center;html=1;shape=mxgraph.mockup.buttons.button;strokeColor=#666666;mainText=;buttonStyle=round;fontSize=17;fontStyle=0;fillColor=none;whiteSpace=wrap;rounded=0;labelBackgroundColor=none;" parent="J9O3w2T6ldLMy-nIrZDR-1" vertex="1">
          <mxGeometry x="190" y="545" width="50" height="25" as="geometry" />
        </mxCell>
        <mxCell id="J9O3w2T6ldLMy-nIrZDR-25" value="&lt;p&gt;&lt;span style=&quot;font-size: 10px;&quot;&gt;Add&lt;/span&gt;&lt;/p&gt;" style="strokeWidth=1;shadow=0;dashed=0;align=center;html=1;shape=mxgraph.mockup.buttons.button;strokeColor=#666666;mainText=;buttonStyle=round;fontSize=17;fontStyle=0;fillColor=none;whiteSpace=wrap;rounded=0;labelBackgroundColor=none;" parent="J9O3w2T6ldLMy-nIrZDR-1" vertex="1">
          <mxGeometry x="165" y="545" width="25" height="25" as="geometry" />
        </mxCell>
        <mxCell id="J9O3w2T6ldLMy-nIrZDR-26" value="&lt;p&gt;&lt;span style=&quot;font-size: 10px;&quot;&gt;Change&lt;/span&gt;&lt;/p&gt;" style="strokeWidth=1;shadow=0;dashed=0;align=center;html=1;shape=mxgraph.mockup.buttons.button;strokeColor=#666666;mainText=;buttonStyle=round;fontSize=17;fontStyle=0;fillColor=none;whiteSpace=wrap;rounded=0;labelBackgroundColor=none;" parent="J9O3w2T6ldLMy-nIrZDR-1" vertex="1">
          <mxGeometry x="190" y="585" width="50" height="25" as="geometry" />
        </mxCell>
        <mxCell id="J9O3w2T6ldLMy-nIrZDR-27" value="&lt;p&gt;&lt;span style=&quot;font-size: 10px;&quot;&gt;Add&lt;/span&gt;&lt;/p&gt;" style="strokeWidth=1;shadow=0;dashed=0;align=center;html=1;shape=mxgraph.mockup.buttons.button;strokeColor=#666666;mainText=;buttonStyle=round;fontSize=17;fontStyle=0;fillColor=none;whiteSpace=wrap;rounded=0;labelBackgroundColor=none;" parent="J9O3w2T6ldLMy-nIrZDR-1" vertex="1">
          <mxGeometry x="165" y="585" width="25" height="25" as="geometry" />
        </mxCell>
        <mxCell id="J9O3w2T6ldLMy-nIrZDR-28" value="&lt;p&gt;&lt;span style=&quot;font-size: 10px;&quot;&gt;Change&lt;/span&gt;&lt;/p&gt;" style="strokeWidth=1;shadow=0;dashed=0;align=center;html=1;shape=mxgraph.mockup.buttons.button;strokeColor=#666666;mainText=;buttonStyle=round;fontSize=17;fontStyle=0;fillColor=none;whiteSpace=wrap;rounded=0;labelBackgroundColor=none;" parent="J9O3w2T6ldLMy-nIrZDR-1" vertex="1">
          <mxGeometry x="190" y="625" width="50" height="25" as="geometry" />
        </mxCell>
        <mxCell id="J9O3w2T6ldLMy-nIrZDR-29" value="&lt;p&gt;&lt;span style=&quot;font-size: 10px;&quot;&gt;Add&lt;/span&gt;&lt;/p&gt;" style="strokeWidth=1;shadow=0;dashed=0;align=center;html=1;shape=mxgraph.mockup.buttons.button;strokeColor=#666666;mainText=;buttonStyle=round;fontSize=17;fontStyle=0;fillColor=none;whiteSpace=wrap;rounded=0;labelBackgroundColor=none;" parent="J9O3w2T6ldLMy-nIrZDR-1" vertex="1">
          <mxGeometry x="165" y="625" width="25" height="25" as="geometry" />
        </mxCell>
        <mxCell id="J9O3w2T6ldLMy-nIrZDR-30" value="&lt;p&gt;&lt;span style=&quot;font-size: 10px;&quot;&gt;Change&lt;/span&gt;&lt;/p&gt;" style="strokeWidth=1;shadow=0;dashed=0;align=center;html=1;shape=mxgraph.mockup.buttons.button;strokeColor=#666666;mainText=;buttonStyle=round;fontSize=17;fontStyle=0;fillColor=none;whiteSpace=wrap;rounded=0;labelBackgroundColor=none;" parent="J9O3w2T6ldLMy-nIrZDR-1" vertex="1">
          <mxGeometry x="190" y="665" width="50" height="25" as="geometry" />
        </mxCell>
        <mxCell id="J9O3w2T6ldLMy-nIrZDR-31" value="&lt;p&gt;&lt;span style=&quot;font-size: 10px;&quot;&gt;Add&lt;/span&gt;&lt;/p&gt;" style="strokeWidth=1;shadow=0;dashed=0;align=center;html=1;shape=mxgraph.mockup.buttons.button;strokeColor=#666666;mainText=;buttonStyle=round;fontSize=17;fontStyle=0;fillColor=none;whiteSpace=wrap;rounded=0;labelBackgroundColor=none;" parent="J9O3w2T6ldLMy-nIrZDR-1" vertex="1">
          <mxGeometry x="165" y="665" width="25" height="25" as="geometry" />
        </mxCell>
        <mxCell id="J9O3w2T6ldLMy-nIrZDR-32" value="" style="fillColor=#36B37E;strokeColor=none;rounded=1;arcSize=50;sketch=0;hachureGap=4;pointerEvents=0;fontFamily=Architects Daughter;fontSource=https%3A%2F%2Ffonts.googleapis.com%2Fcss%3Ffamily%3DArchitects%2BDaughter;fontSize=20;" parent="J9O3w2T6ldLMy-nIrZDR-1" vertex="1">
          <mxGeometry x="555" y="137.5" width="50" height="25" as="geometry" />
        </mxCell>
        <mxCell id="J9O3w2T6ldLMy-nIrZDR-33" value="" style="shape=ellipse;strokeColor=none;fillColor=#ffffff;sketch=0;hachureGap=4;pointerEvents=0;fontFamily=Architects Daughter;fontSource=https%3A%2F%2Ffonts.googleapis.com%2Fcss%3Ffamily%3DArchitects%2BDaughter;fontSize=20;" parent="J9O3w2T6ldLMy-nIrZDR-32" vertex="1">
          <mxGeometry x="1" y="0.5" width="16" height="16" relative="1" as="geometry">
            <mxPoint x="-18" y="-8" as="offset" />
          </mxGeometry>
        </mxCell>
        <mxCell id="J9O3w2T6ldLMy-nIrZDR-34" value="" style="html=1;shadow=0;dashed=0;shape=mxgraph.atlassian.check;strokeColor=#ffffff;strokeWidth=2;sketch=1;hachureGap=4;pointerEvents=0;fontFamily=Architects Daughter;fontSource=https%3A%2F%2Ffonts.googleapis.com%2Fcss%3Ffamily%3DArchitects%2BDaughter;fontSize=20;" parent="J9O3w2T6ldLMy-nIrZDR-32" vertex="1">
          <mxGeometry y="0.5" width="10" height="8" relative="1" as="geometry">
            <mxPoint x="6" y="-5" as="offset" />
          </mxGeometry>
        </mxCell>
        <mxCell id="J9O3w2T6ldLMy-nIrZDR-35" value="" style="sketch=0;pointerEvents=1;shadow=0;dashed=0;html=1;strokeColor=none;labelPosition=center;verticalLabelPosition=bottom;verticalAlign=top;align=center;fillColor=#505050;shape=mxgraph.mscae.intune.account_portal" parent="J9O3w2T6ldLMy-nIrZDR-1" vertex="1">
          <mxGeometry x="905" y="135" width="30" height="30" as="geometry" />
        </mxCell>
        <mxCell id="J9O3w2T6ldLMy-nIrZDR-36" value="&lt;table border=&quot;0&quot; cellpadding=&quot;0&quot; cellspacing=&quot;0&quot; width=&quot;100%&quot; height=&quot;100%&quot; style=&quot;font-size:1em;&quot;&gt;&lt;tbody&gt;&lt;tr height=&quot;0%&quot;&gt;&lt;td width=&quot;25%&quot;&gt;Ac 1&lt;/td&gt;&lt;td width=&quot;25%&quot;&gt;Ac 2&lt;/td&gt;&lt;td width=&quot;25%&quot; style=&quot;color: rgb(0, 140, 255);&quot;&gt;Ac 3&lt;/td&gt;&lt;td width=&quot;25%&quot;&gt;Ac 4&lt;/td&gt;&lt;/tr&gt;&lt;tr height=&quot;100%&quot;&gt;&lt;td&gt;&lt;/td&gt;&lt;/tr&gt;&lt;/tbody&gt;&lt;/table&gt;" style="strokeWidth=1;shadow=0;dashed=0;align=center;html=1;shape=mxgraph.mockup.navigation.stepBar;strokeColor=#c4c4c4;textColor=#666666;textColor2=#008cff;mainText=,,+,;textSize=17;fillColor=#666666;overflow=fill;fontSize=17;fontColor=#666666;rotation=90;" parent="J9O3w2T6ldLMy-nIrZDR-1" vertex="1">
          <mxGeometry x="857.5" y="465" width="300" height="50" as="geometry" />
        </mxCell>
        <mxCell id="J9O3w2T6ldLMy-nIrZDR-37" value="&lt;font style=&quot;color: rgb(60, 141, 188);&quot;&gt;Bussiness&lt;/font&gt;" style="text;html=1;points=[];align=left;verticalAlign=top;spacingTop=-4;fontSize=15;fontFamily=Verdana;whiteSpace=wrap;" parent="J9O3w2T6ldLMy-nIrZDR-1" vertex="1">
          <mxGeometry x="43.75" y="545" width="190" height="40" as="geometry" />
        </mxCell>
        <mxCell id="J9O3w2T6ldLMy-nIrZDR-38" value="" style="rounded=1;whiteSpace=wrap;html=1;arcSize=4;" parent="J9O3w2T6ldLMy-nIrZDR-1" vertex="1">
          <mxGeometry x="295" y="475" width="265" height="250" as="geometry" />
        </mxCell>
        <mxCell id="J9O3w2T6ldLMy-nIrZDR-39" value="" style="rounded=1;whiteSpace=wrap;html=1;arcSize=4;" parent="J9O3w2T6ldLMy-nIrZDR-1" vertex="1">
          <mxGeometry x="575" y="475" width="265" height="250" as="geometry" />
        </mxCell>
        <mxCell id="J9O3w2T6ldLMy-nIrZDR-40" value="" style="rounded=1;whiteSpace=wrap;html=1;arcSize=4;" parent="J9O3w2T6ldLMy-nIrZDR-1" vertex="1">
          <mxGeometry x="857.5" y="342.5" width="125" height="65" as="geometry" />
        </mxCell>
        <mxCell id="J9O3w2T6ldLMy-nIrZDR-41" value="" style="rounded=1;whiteSpace=wrap;html=1;arcSize=4;" parent="J9O3w2T6ldLMy-nIrZDR-1" vertex="1">
          <mxGeometry x="857.5" y="415" width="125" height="65" as="geometry" />
        </mxCell>
        <mxCell id="J9O3w2T6ldLMy-nIrZDR-42" value="" style="rounded=1;whiteSpace=wrap;html=1;arcSize=4;" parent="J9O3w2T6ldLMy-nIrZDR-1" vertex="1">
          <mxGeometry x="857.5" y="490" width="125" height="65" as="geometry" />
        </mxCell>
        <mxCell id="J9O3w2T6ldLMy-nIrZDR-43" value="" style="rounded=1;whiteSpace=wrap;html=1;arcSize=4;" parent="J9O3w2T6ldLMy-nIrZDR-1" vertex="1">
          <mxGeometry x="857.5" y="565" width="125" height="65" as="geometry" />
        </mxCell>
        <mxCell id="J9O3w2T6ldLMy-nIrZDR-44" value="&lt;span style=&quot;box-sizing: border-box; font-weight: bolder; color: rgb(134, 144, 153); font-family: &amp;quot;Source Sans Pro&amp;quot;, -apple-system, BlinkMacSystemFont, &amp;quot;Segoe UI&amp;quot;, Roboto, &amp;quot;Helvetica Neue&amp;quot;, Arial, sans-serif, &amp;quot;Apple Color Emoji&amp;quot;, &amp;quot;Segoe UI Emoji&amp;quot;, &amp;quot;Segoe UI Symbol&amp;quot;; font-size: 14px; text-align: left;&quot;&gt;Copyright © 2025 IPBase.&lt;/span&gt;&lt;span style=&quot;color: rgb(134, 144, 153); font-family: &amp;quot;Source Sans Pro&amp;quot;, -apple-system, BlinkMacSystemFont, &amp;quot;Segoe UI&amp;quot;, Roboto, &amp;quot;Helvetica Neue&amp;quot;, Arial, sans-serif, &amp;quot;Apple Color Emoji&amp;quot;, &amp;quot;Segoe UI Emoji&amp;quot;, &amp;quot;Segoe UI Symbol&amp;quot;; font-size: 14px; text-align: left; background-color: rgb(255, 255, 255);&quot;&gt;&amp;nbsp;All rights reserved.&lt;/span&gt;" style="text;html=1;align=center;verticalAlign=middle;whiteSpace=wrap;rounded=0;" parent="J9O3w2T6ldLMy-nIrZDR-1" vertex="1">
          <mxGeometry x="8" y="765" width="292" height="30" as="geometry" />
        </mxCell>
        <mxCell id="J9O3w2T6ldLMy-nIrZDR-45" value="" style="verticalLabelPosition=bottom;shadow=0;dashed=0;align=center;html=1;verticalAlign=top;strokeWidth=1;shape=mxgraph.mockup.markup.line;strokeColor=#999999;rounded=0;labelBackgroundColor=none;fillColor=#ffffff;fontFamily=Verdana;fontSize=12;fontColor=#000000;rotation=90;" parent="J9O3w2T6ldLMy-nIrZDR-1" vertex="1">
          <mxGeometry x="130" y="267.5" width="30" height="5" as="geometry" />
        </mxCell>
        <mxCell id="J9O3w2T6ldLMy-nIrZDR-46" value="Dashbroad" style="strokeWidth=1;shadow=0;dashed=0;align=center;html=1;shape=mxgraph.mockup.navigation.anchor;fontSize=22;fontColor=#666666;fontStyle=1;" parent="J9O3w2T6ldLMy-nIrZDR-1" vertex="1">
          <mxGeometry x="45" y="255" width="60" height="30" as="geometry" />
        </mxCell>
        <mxCell id="J9O3w2T6ldLMy-nIrZDR-47" value="" style="verticalLabelPosition=bottom;shadow=0;dashed=0;align=center;html=1;verticalAlign=top;strokeWidth=1;shape=mxgraph.mockup.navigation.scrollBar;strokeColor=#999999;barPos=98.563;fillColor2=#99ddff;strokeColor2=none;direction=north;" parent="J9O3w2T6ldLMy-nIrZDR-1" vertex="1">
          <mxGeometry x="1037.5" y="250" width="20" height="500" as="geometry" />
        </mxCell>
        <mxCell id="J9O3w2T6ldLMy-nIrZDR-48" value="&lt;span style=&quot;box-sizing: border-box; font-weight: bolder; color: rgb(134, 144, 153); font-family: &amp;quot;Source Sans Pro&amp;quot;, -apple-system, BlinkMacSystemFont, &amp;quot;Segoe UI&amp;quot;, Roboto, &amp;quot;Helvetica Neue&amp;quot;, Arial, sans-serif, &amp;quot;Apple Color Emoji&amp;quot;, &amp;quot;Segoe UI Emoji&amp;quot;, &amp;quot;Segoe UI Symbol&amp;quot;; font-size: 14px; text-align: left; background-color: rgb(255, 255, 255);&quot;&gt;IPTV version&lt;/span&gt;&lt;span style=&quot;color: rgb(134, 144, 153); font-family: &amp;quot;Source Sans Pro&amp;quot;, -apple-system, BlinkMacSystemFont, &amp;quot;Segoe UI&amp;quot;, Roboto, &amp;quot;Helvetica Neue&amp;quot;, Arial, sans-serif, &amp;quot;Apple Color Emoji&amp;quot;, &amp;quot;Segoe UI Emoji&amp;quot;, &amp;quot;Segoe UI Symbol&amp;quot;; font-size: 14px; text-align: left; background-color: rgb(255, 255, 255);&quot;&gt;&amp;nbsp;2.0&lt;/span&gt;" style="text;html=1;align=center;verticalAlign=middle;whiteSpace=wrap;rounded=0;" parent="J9O3w2T6ldLMy-nIrZDR-1" vertex="1">
          <mxGeometry x="922.75" y="765" width="114.5" height="30" as="geometry" />
        </mxCell>
        <mxCell id="J9O3w2T6ldLMy-nIrZDR-49" value="" style="shape=ext;double=1;rounded=1;whiteSpace=wrap;html=1;arcSize=6;" parent="J9O3w2T6ldLMy-nIrZDR-1" vertex="1">
          <mxGeometry x="15" y="300" width="385" height="160" as="geometry" />
        </mxCell>
        <mxCell id="J9O3w2T6ldLMy-nIrZDR-50" value="" style="shape=ext;double=1;rounded=1;whiteSpace=wrap;html=1;arcSize=11;" parent="J9O3w2T6ldLMy-nIrZDR-1" vertex="1">
          <mxGeometry x="420" y="300" width="420" height="70" as="geometry" />
        </mxCell>
        <mxCell id="J9O3w2T6ldLMy-nIrZDR-51" value="" style="shape=ext;double=1;rounded=1;whiteSpace=wrap;html=1;arcSize=8;" parent="J9O3w2T6ldLMy-nIrZDR-1" vertex="1">
          <mxGeometry x="420" y="380" width="420" height="80" as="geometry" />
        </mxCell>
        <mxCell id="J9O3w2T6ldLMy-nIrZDR-52" value="" style="sketch=0;aspect=fixed;pointerEvents=1;shadow=0;dashed=0;html=1;strokeColor=none;labelPosition=center;verticalLabelPosition=bottom;verticalAlign=top;align=center;fillColor=#00188D;shape=mxgraph.mscae.enterprise.settings" parent="J9O3w2T6ldLMy-nIrZDR-1" vertex="1">
          <mxGeometry x="1012.25" y="137.5" width="25" height="25" as="geometry" />
        </mxCell>
        <mxCell id="J9O3w2T6ldLMy-nIrZDR-54" value="" style="sketch=0;pointerEvents=1;shadow=0;dashed=0;html=1;strokeColor=none;labelPosition=center;verticalLabelPosition=bottom;verticalAlign=top;align=center;fillColor=#505050;shape=mxgraph.mscae.oms.assessments" parent="J9O3w2T6ldLMy-nIrZDR-1" vertex="1">
          <mxGeometry x="440" y="395" width="47" height="50" as="geometry" />
        </mxCell>
        <mxCell id="J9O3w2T6ldLMy-nIrZDR-55" value="" style="sketch=0;pointerEvents=1;shadow=0;dashed=0;html=1;strokeColor=none;labelPosition=center;verticalLabelPosition=bottom;verticalAlign=top;align=center;fillColor=#505050;shape=mxgraph.mscae.oms.capacity" parent="J9O3w2T6ldLMy-nIrZDR-1" vertex="1">
          <mxGeometry x="440" y="310" width="41" height="50" as="geometry" />
        </mxCell>
        <mxCell id="J9O3w2T6ldLMy-nIrZDR-57" value="" style="html=1;verticalLabelPosition=bottom;labelBackgroundColor=#ffffff;verticalAlign=top;shadow=0;dashed=0;strokeWidth=2;shape=mxgraph.ios7.misc.options;fillColor=#222222;sketch=0;" parent="J9O3w2T6ldLMy-nIrZDR-1" vertex="1">
          <mxGeometry x="260" y="150" width="30" height="20" as="geometry" />
        </mxCell>
        <mxCell id="J9O3w2T6ldLMy-nIrZDR-58" value="" style="verticalLabelPosition=bottom;aspect=fixed;html=1;shape=mxgraph.salesforce.energy;" parent="J9O3w2T6ldLMy-nIrZDR-1" vertex="1">
          <mxGeometry x="530" y="138.75" width="17.82" height="23.75" as="geometry" />
        </mxCell>
        <mxCell id="J9O3w2T6ldLMy-nIrZDR-59" value="Users" style="text;html=1;points=[];align=left;verticalAlign=top;spacingTop=-4;fontSize=18;fontFamily=Verdana;whiteSpace=wrap;" parent="J9O3w2T6ldLMy-nIrZDR-1" vertex="1">
          <mxGeometry x="650" y="185" width="30" height="20" as="geometry" />
        </mxCell>
        <mxCell id="5XZRG9URkLQvCpiwJF7V-3" value="Text" style="text;html=1;align=center;verticalAlign=middle;whiteSpace=wrap;rounded=0;fontStyle=1;fontSize=15;" parent="J9O3w2T6ldLMy-nIrZDR-1" vertex="1">
          <mxGeometry x="853.5" y="345" width="45" height="20" as="geometry" />
        </mxCell>
        <mxCell id="5XZRG9URkLQvCpiwJF7V-4" value="Text" style="text;html=1;align=center;verticalAlign=middle;whiteSpace=wrap;rounded=0;" parent="J9O3w2T6ldLMy-nIrZDR-1" vertex="1">
          <mxGeometry x="846" y="360" width="60" height="30" as="geometry" />
        </mxCell>
        <mxCell id="5XZRG9URkLQvCpiwJF7V-5" value="" style="verticalLabelPosition=top;html=1;shadow=0;dashed=0;verticalAlign=bottom;strokeWidth=1;shape=mxgraph.ios.iPin;fillColor2=#ccccff;fillColor3=#0000ff;strokeColor=#000066;" parent="J9O3w2T6ldLMy-nIrZDR-1" vertex="1">
          <mxGeometry x="972.5" y="317.5" width="10" height="25" as="geometry" />
        </mxCell>
        <mxCell id="5XZRG9URkLQvCpiwJF7V-7" value="" style="verticalLabelPosition=bottom;shadow=0;dashed=0;align=center;html=1;verticalAlign=top;strokeWidth=1;shape=mxgraph.mockup.graphics.pieChart;strokeColor=#000000;parts=10,20,35;partColors=#e0e0e0,#d0d0d0,#c0c0c0,#b0b0b0,#a0a0a0;strokeWidth=2;" parent="J9O3w2T6ldLMy-nIrZDR-1" vertex="1">
          <mxGeometry x="270" y="325" width="115" height="110" as="geometry" />
        </mxCell>
        <mxCell id="5XZRG9URkLQvCpiwJF7V-9" value="" style="verticalLabelPosition=bottom;shadow=0;dashed=0;align=center;html=1;verticalAlign=top;strokeWidth=1;shape=mxgraph.mockup.graphics.lineChart;strokeColor=none;strokeColor2=#666666;strokeColor3=#008cff;strokeColor4=#dddddd;fillColor=#FFFFFF;fontColor=#000000;" parent="J9O3w2T6ldLMy-nIrZDR-1" vertex="1">
          <mxGeometry x="30" y="325" width="235" height="115" as="geometry" />
        </mxCell>
        <mxCell id="qE4wQsm5cp0l6o7OKcLF-1" value="" style="rounded=0;whiteSpace=wrap;html=1;" parent="1" vertex="1">
          <mxGeometry x="-880" y="70" width="280" height="710" as="geometry" />
        </mxCell>
        <mxCell id="vS_Rxtoo1o6F0y1KNGcY-2" value="IPTV Admin" style="text;html=1;points=[];align=left;verticalAlign=top;spacingTop=-4;fontSize=30;fontFamily=Verdana" parent="1" vertex="1">
          <mxGeometry x="-805" y="115" width="180" height="50" as="geometry" />
        </mxCell>
        <mxCell id="vS_Rxtoo1o6F0y1KNGcY-3" value="Icon" style="icon;html=1;image=img/clipart/Gear_128x128.png;arcSize=24;" parent="1" vertex="1">
          <mxGeometry x="-850" y="115" width="40" height="40" as="geometry" />
        </mxCell>
        <mxCell id="vS_Rxtoo1o6F0y1KNGcY-4" value="" style="verticalLabelPosition=bottom;shadow=0;dashed=0;align=center;html=1;verticalAlign=top;strokeWidth=1;shape=mxgraph.mockup.markup.line;strokeColor=#999999;rounded=0;labelBackgroundColor=none;fillColor=#ffffff;fontFamily=Verdana;fontSize=12;fontColor=#000000;" parent="1" vertex="1">
          <mxGeometry x="-875" y="190" width="270" height="20" as="geometry" />
        </mxCell>
        <mxCell id="vS_Rxtoo1o6F0y1KNGcY-5" value="" style="rounded=1;whiteSpace=wrap;html=1;fillColor=#dae8fc;strokeColor=#6c8ebf;" parent="1" vertex="1">
          <mxGeometry x="-870" y="210" width="260" height="50" as="geometry" />
        </mxCell>
        <mxCell id="vS_Rxtoo1o6F0y1KNGcY-9" value="" style="rounded=1;whiteSpace=wrap;html=1;" parent="1" vertex="1">
          <mxGeometry x="-870" y="510" width="260" height="50" as="geometry" />
        </mxCell>
        <mxCell id="vS_Rxtoo1o6F0y1KNGcY-10" value="" style="rounded=1;whiteSpace=wrap;html=1;" parent="1" vertex="1">
          <mxGeometry x="-870" y="570" width="260" height="50" as="geometry" />
        </mxCell>
        <mxCell id="vS_Rxtoo1o6F0y1KNGcY-11" value="" style="rounded=1;whiteSpace=wrap;html=1;" parent="1" vertex="1">
          <mxGeometry x="-870" y="630" width="260" height="50" as="geometry" />
        </mxCell>
        <mxCell id="vS_Rxtoo1o6F0y1KNGcY-14" value="" style="html=1;verticalLabelPosition=bottom;labelBackgroundColor=#ffffff;verticalAlign=top;shadow=0;dashed=0;strokeWidth=2;shape=mxgraph.ios7.misc.more;strokeColor=#a0a0a0;" parent="1" vertex="1">
          <mxGeometry x="-625" y="531" width="5" height="8" as="geometry" />
        </mxCell>
        <mxCell id="vS_Rxtoo1o6F0y1KNGcY-15" value="" style="html=1;verticalLabelPosition=bottom;labelBackgroundColor=#ffffff;verticalAlign=top;shadow=0;dashed=0;strokeWidth=2;shape=mxgraph.ios7.misc.more;strokeColor=#a0a0a0;" parent="1" vertex="1">
          <mxGeometry x="-625" y="591" width="5" height="8" as="geometry" />
        </mxCell>
        <mxCell id="vS_Rxtoo1o6F0y1KNGcY-16" value="" style="html=1;verticalLabelPosition=bottom;labelBackgroundColor=#ffffff;verticalAlign=top;shadow=0;dashed=0;strokeWidth=2;shape=mxgraph.ios7.misc.more;strokeColor=#a0a0a0;" parent="1" vertex="1">
          <mxGeometry x="-625" y="651" width="5" height="8" as="geometry" />
        </mxCell>
        <mxCell id="vS_Rxtoo1o6F0y1KNGcY-35" value="" style="html=1;verticalLabelPosition=bottom;align=center;labelBackgroundColor=#ffffff;verticalAlign=top;strokeWidth=2;strokeColor=#0080F0;shadow=0;dashed=0;shape=mxgraph.ios7.icons.info;" parent="1" vertex="1">
          <mxGeometry x="-860" y="520" width="30" height="30" as="geometry" />
        </mxCell>
        <mxCell id="vS_Rxtoo1o6F0y1KNGcY-36" value="" style="html=1;verticalLabelPosition=bottom;align=center;labelBackgroundColor=#ffffff;verticalAlign=top;strokeWidth=2;strokeColor=#0080F0;shadow=0;dashed=0;shape=mxgraph.ios7.icons.data;" parent="1" vertex="1">
          <mxGeometry x="-857" y="221" width="24" height="29.099999999999998" as="geometry" />
        </mxCell>
        <mxCell id="vS_Rxtoo1o6F0y1KNGcY-37" value="" style="rounded=1;whiteSpace=wrap;html=1;arcSize=3;" parent="1" vertex="1">
          <mxGeometry x="-870" y="270" width="260" height="230" as="geometry" />
        </mxCell>
        <mxCell id="vS_Rxtoo1o6F0y1KNGcY-8" value="" style="rounded=1;whiteSpace=wrap;html=1;" parent="1" vertex="1">
          <mxGeometry x="-870" y="270" width="260" height="50" as="geometry" />
        </mxCell>
        <mxCell id="vS_Rxtoo1o6F0y1KNGcY-17" value="" style="shape=table;startSize=0;container=1;collapsible=0;childLayout=tableLayout;fontSize=20;fillColor=none;strokeColor=none;" parent="1" vertex="1">
          <mxGeometry x="-820" y="320" width="210" height="170" as="geometry" />
        </mxCell>
        <mxCell id="vS_Rxtoo1o6F0y1KNGcY-18" value="" style="shape=tableRow;horizontal=0;startSize=0;swimlaneHead=0;swimlaneBody=0;strokeColor=inherit;top=0;left=0;bottom=0;right=0;collapsible=0;dropTarget=0;fillColor=none;points=[[0,0.5],[1,0.5]];portConstraint=eastwest;fontSize=16;" parent="vS_Rxtoo1o6F0y1KNGcY-17" vertex="1">
          <mxGeometry width="210" height="48" as="geometry" />
        </mxCell>
        <mxCell id="vS_Rxtoo1o6F0y1KNGcY-19" value="&lt;font style=&quot;font-size: 20px;&quot;&gt;Item 1&lt;/font&gt;" style="shape=partialRectangle;html=1;whiteSpace=wrap;connectable=0;strokeColor=inherit;overflow=hidden;fillColor=none;top=0;left=0;bottom=0;right=0;pointerEvents=1;fontSize=12;align=left;spacingLeft=5;" parent="vS_Rxtoo1o6F0y1KNGcY-18" vertex="1">
          <mxGeometry width="210" height="48" as="geometry">
            <mxRectangle width="210" height="48" as="alternateBounds" />
          </mxGeometry>
        </mxCell>
        <mxCell id="vS_Rxtoo1o6F0y1KNGcY-20" value="" style="shape=tableRow;horizontal=0;startSize=0;swimlaneHead=0;swimlaneBody=0;strokeColor=inherit;top=0;left=0;bottom=0;right=0;collapsible=0;dropTarget=0;fillColor=none;points=[[0,0.5],[1,0.5]];portConstraint=eastwest;fontSize=16;" parent="vS_Rxtoo1o6F0y1KNGcY-17" vertex="1">
          <mxGeometry y="48" width="210" height="38" as="geometry" />
        </mxCell>
        <mxCell id="vS_Rxtoo1o6F0y1KNGcY-21" value="&lt;font style=&quot;font-size: 20px;&quot;&gt;Item 2&lt;/font&gt;" style="shape=partialRectangle;html=1;whiteSpace=wrap;connectable=0;strokeColor=inherit;overflow=hidden;fillColor=none;top=0;left=0;bottom=0;right=0;pointerEvents=1;fontSize=12;align=left;spacingLeft=5;" parent="vS_Rxtoo1o6F0y1KNGcY-20" vertex="1">
          <mxGeometry width="210" height="38" as="geometry">
            <mxRectangle width="210" height="38" as="alternateBounds" />
          </mxGeometry>
        </mxCell>
        <mxCell id="vS_Rxtoo1o6F0y1KNGcY-22" value="" style="shape=tableRow;horizontal=0;startSize=0;swimlaneHead=0;swimlaneBody=0;strokeColor=inherit;top=0;left=0;bottom=0;right=0;collapsible=0;dropTarget=0;fillColor=none;points=[[0,0.5],[1,0.5]];portConstraint=eastwest;fontSize=16;" parent="vS_Rxtoo1o6F0y1KNGcY-17" vertex="1">
          <mxGeometry y="86" width="210" height="42" as="geometry" />
        </mxCell>
        <mxCell id="vS_Rxtoo1o6F0y1KNGcY-23" value="&lt;font style=&quot;font-size: 20px;&quot;&gt;Item 3&lt;/font&gt;" style="shape=partialRectangle;html=1;whiteSpace=wrap;connectable=0;strokeColor=inherit;overflow=hidden;fillColor=none;top=0;left=0;bottom=0;right=0;pointerEvents=1;fontSize=12;align=left;spacingLeft=5;" parent="vS_Rxtoo1o6F0y1KNGcY-22" vertex="1">
          <mxGeometry width="210" height="42" as="geometry">
            <mxRectangle width="210" height="42" as="alternateBounds" />
          </mxGeometry>
        </mxCell>
        <mxCell id="vS_Rxtoo1o6F0y1KNGcY-24" style="shape=tableRow;horizontal=0;startSize=0;swimlaneHead=0;swimlaneBody=0;strokeColor=inherit;top=0;left=0;bottom=0;right=0;collapsible=0;dropTarget=0;fillColor=none;points=[[0,0.5],[1,0.5]];portConstraint=eastwest;fontSize=16;" parent="vS_Rxtoo1o6F0y1KNGcY-17" vertex="1">
          <mxGeometry y="128" width="210" height="42" as="geometry" />
        </mxCell>
        <mxCell id="vS_Rxtoo1o6F0y1KNGcY-25" value="&lt;font style=&quot;font-size: 20px;&quot;&gt;Item 4&lt;/font&gt;" style="shape=partialRectangle;html=1;whiteSpace=wrap;connectable=0;strokeColor=inherit;overflow=hidden;fillColor=none;top=0;left=0;bottom=0;right=0;pointerEvents=1;fontSize=12;align=left;spacingLeft=5;" parent="vS_Rxtoo1o6F0y1KNGcY-24" vertex="1">
          <mxGeometry width="210" height="42" as="geometry">
            <mxRectangle width="210" height="42" as="alternateBounds" />
          </mxGeometry>
        </mxCell>
        <mxCell id="vS_Rxtoo1o6F0y1KNGcY-28" value="" style="html=1;verticalLabelPosition=bottom;align=center;labelBackgroundColor=#ffffff;verticalAlign=top;strokeWidth=2;strokeColor=#0080F0;shadow=0;dashed=0;shape=mxgraph.ios7.icons.cube;" parent="1" vertex="1">
          <mxGeometry x="-845" y="339" width="20" height="21" as="geometry" />
        </mxCell>
        <mxCell id="vS_Rxtoo1o6F0y1KNGcY-29" value="" style="html=1;verticalLabelPosition=bottom;align=center;labelBackgroundColor=#ffffff;verticalAlign=top;strokeWidth=2;strokeColor=#0080F0;shadow=0;dashed=0;shape=mxgraph.ios7.icons.cube;" parent="1" vertex="1">
          <mxGeometry x="-845" y="380" width="20" height="20" as="geometry" />
        </mxCell>
        <mxCell id="vS_Rxtoo1o6F0y1KNGcY-30" value="" style="html=1;verticalLabelPosition=bottom;align=center;labelBackgroundColor=#ffffff;verticalAlign=top;strokeWidth=2;strokeColor=#0080F0;shadow=0;dashed=0;shape=mxgraph.ios7.icons.cube;" parent="1" vertex="1">
          <mxGeometry x="-845" y="420" width="20" height="20" as="geometry" />
        </mxCell>
        <mxCell id="vS_Rxtoo1o6F0y1KNGcY-31" value="" style="html=1;verticalLabelPosition=bottom;align=center;labelBackgroundColor=#ffffff;verticalAlign=top;strokeWidth=2;strokeColor=#0080F0;shadow=0;dashed=0;shape=mxgraph.ios7.icons.cube;" parent="1" vertex="1">
          <mxGeometry x="-845" y="460" width="20" height="20" as="geometry" />
        </mxCell>
        <mxCell id="vS_Rxtoo1o6F0y1KNGcY-34" value="" style="html=1;verticalLabelPosition=bottom;align=center;labelBackgroundColor=#ffffff;verticalAlign=top;strokeWidth=2;strokeColor=#0080F0;shadow=0;dashed=0;shape=mxgraph.ios7.icons.info;" parent="1" vertex="1">
          <mxGeometry x="-860" y="280" width="30" height="30" as="geometry" />
        </mxCell>
        <mxCell id="vS_Rxtoo1o6F0y1KNGcY-13" value="" style="html=1;verticalLabelPosition=bottom;labelBackgroundColor=#ffffff;verticalAlign=top;shadow=0;dashed=0;strokeWidth=2;shape=mxgraph.ios7.misc.more;strokeColor=#a0a0a0;rotation=90;" parent="1" vertex="1">
          <mxGeometry x="-630" y="290.1" width="5" height="8" as="geometry" />
        </mxCell>
        <mxCell id="vS_Rxtoo1o6F0y1KNGcY-39" value="" style="html=1;verticalLabelPosition=bottom;align=center;labelBackgroundColor=#ffffff;verticalAlign=top;strokeWidth=2;strokeColor=#0080F0;shadow=0;dashed=0;shape=mxgraph.ios7.icons.info;" parent="1" vertex="1">
          <mxGeometry x="-860" y="580" width="30" height="30" as="geometry" />
        </mxCell>
        <mxCell id="vS_Rxtoo1o6F0y1KNGcY-40" value="" style="html=1;verticalLabelPosition=bottom;align=center;labelBackgroundColor=#ffffff;verticalAlign=top;strokeWidth=2;strokeColor=#0080F0;shadow=0;dashed=0;shape=mxgraph.ios7.icons.info;" parent="1" vertex="1">
          <mxGeometry x="-860" y="640" width="30" height="30" as="geometry" />
        </mxCell>
        <mxCell id="vS_Rxtoo1o6F0y1KNGcY-43" value="Dashboard" style="text;strokeColor=none;fillColor=none;html=1;fontSize=24;fontStyle=1;verticalAlign=middle;align=center;" parent="1" vertex="1">
          <mxGeometry x="-870" y="30" width="100" height="40" as="geometry" />
        </mxCell>
        <mxCell id="vS_Rxtoo1o6F0y1KNGcY-45" value="Text" style="text;html=1;align=center;verticalAlign=middle;whiteSpace=wrap;rounded=0;fontSize=20;" parent="1" vertex="1">
          <mxGeometry x="-827" y="280" width="60" height="30" as="geometry" />
        </mxCell>
        <mxCell id="vS_Rxtoo1o6F0y1KNGcY-55" value="Dashboard" style="text;html=1;align=center;verticalAlign=middle;whiteSpace=wrap;rounded=0;fontSize=20;fontStyle=1" parent="1" vertex="1">
          <mxGeometry x="-800" y="221" width="60" height="30" as="geometry" />
        </mxCell>
        <mxCell id="vS_Rxtoo1o6F0y1KNGcY-56" value="Text" style="text;html=1;align=center;verticalAlign=middle;whiteSpace=wrap;rounded=0;fontSize=20;" parent="1" vertex="1">
          <mxGeometry x="-827" y="520" width="60" height="30" as="geometry" />
        </mxCell>
        <mxCell id="vS_Rxtoo1o6F0y1KNGcY-57" value="Text" style="text;html=1;align=center;verticalAlign=middle;whiteSpace=wrap;rounded=0;fontSize=20;" parent="1" vertex="1">
          <mxGeometry x="-827" y="580" width="60" height="30" as="geometry" />
        </mxCell>
        <mxCell id="vS_Rxtoo1o6F0y1KNGcY-58" value="Text" style="text;html=1;align=center;verticalAlign=middle;whiteSpace=wrap;rounded=0;fontSize=20;" parent="1" vertex="1">
          <mxGeometry x="-827" y="640" width="60" height="30" as="geometry" />
        </mxCell>
        <mxCell id="vS_Rxtoo1o6F0y1KNGcY-60" value="" style="verticalLabelPosition=bottom;shadow=0;dashed=0;align=center;html=1;verticalAlign=top;strokeWidth=1;shape=mxgraph.mockup.markup.line;strokeColor=#999999;rounded=0;labelBackgroundColor=none;fillColor=#ffffff;fontFamily=Verdana;fontSize=12;fontColor=#000000;" parent="1" vertex="1">
          <mxGeometry x="-857" y="360" width="230" height="20" as="geometry" />
        </mxCell>
        <mxCell id="vS_Rxtoo1o6F0y1KNGcY-61" value="" style="verticalLabelPosition=bottom;shadow=0;dashed=0;align=center;html=1;verticalAlign=top;strokeWidth=1;shape=mxgraph.mockup.markup.line;strokeColor=#999999;rounded=0;labelBackgroundColor=none;fillColor=#ffffff;fontFamily=Verdana;fontSize=12;fontColor=#000000;spacingTop=0;spacingBottom=0;" parent="1" vertex="1">
          <mxGeometry x="-855" y="400" width="230" height="20" as="geometry" />
        </mxCell>
        <mxCell id="vS_Rxtoo1o6F0y1KNGcY-62" value="" style="verticalLabelPosition=bottom;shadow=0;dashed=0;align=center;html=1;verticalAlign=top;strokeWidth=1;shape=mxgraph.mockup.markup.line;strokeColor=#999999;rounded=0;labelBackgroundColor=none;fillColor=#ffffff;fontFamily=Verdana;fontSize=12;fontColor=#000000;" parent="1" vertex="1">
          <mxGeometry x="-855" y="440" width="230" height="20" as="geometry" />
        </mxCell>
        <mxCell id="vS_Rxtoo1o6F0y1KNGcY-63" value="" style="strokeWidth=1;shadow=0;dashed=0;align=center;html=1;shape=mxgraph.mockup.containers.browserWindow;rSize=0;strokeColor=#666666;mainText=,;recursiveResize=0;rounded=0;labelBackgroundColor=none;fontFamily=Verdana;fontSize=12" parent="1" vertex="1">
          <mxGeometry x="490" y="-40" width="1065" height="820" as="geometry" />
        </mxCell>
        <mxCell id="vS_Rxtoo1o6F0y1KNGcY-64" value="" style="rounded=1;whiteSpace=wrap;html=1;arcSize=4;" parent="vS_Rxtoo1o6F0y1KNGcY-63" vertex="1">
          <mxGeometry x="15" y="475" width="1015" height="215" as="geometry" />
        </mxCell>
        <mxCell id="vS_Rxtoo1o6F0y1KNGcY-65" value="Site admin" style="strokeWidth=1;shadow=0;dashed=0;align=center;html=1;shape=mxgraph.mockup.containers.anchor;fontSize=17;fontColor=#666666;align=left;" parent="vS_Rxtoo1o6F0y1KNGcY-63" vertex="1">
          <mxGeometry x="60" y="12" width="110" height="26" as="geometry" />
        </mxCell>
        <mxCell id="vS_Rxtoo1o6F0y1KNGcY-66" value="&lt;a href=&quot;https://cms-stg2.ipbasevn.com/admin/app/business/&quot;&gt;Select Business to change | Admin&lt;/a&gt;" style="strokeWidth=1;shadow=0;dashed=0;align=center;html=1;shape=mxgraph.mockup.containers.anchor;rSize=0;fontSize=17;fontColor=#666666;align=left;" parent="vS_Rxtoo1o6F0y1KNGcY-63" vertex="1">
          <mxGeometry x="130" y="60" width="250" height="26" as="geometry" />
        </mxCell>
        <mxCell id="vS_Rxtoo1o6F0y1KNGcY-67" value="IPTV Admin" style="text;html=1;points=[];align=left;verticalAlign=top;spacingTop=-4;fontSize=30;fontFamily=Verdana" parent="vS_Rxtoo1o6F0y1KNGcY-63" vertex="1">
          <mxGeometry x="70" y="135" width="180" height="50" as="geometry" />
        </mxCell>
        <mxCell id="vS_Rxtoo1o6F0y1KNGcY-68" value="Search" style="strokeWidth=1;shadow=0;dashed=0;align=center;html=1;shape=mxgraph.mockup.forms.searchBox;strokeColor=#999999;mainText=;strokeColor2=#008cff;fontColor=#666666;fontSize=17;align=left;spacingLeft=3;rounded=0;labelBackgroundColor=none;" parent="vS_Rxtoo1o6F0y1KNGcY-63" vertex="1">
          <mxGeometry x="650" y="135" width="220" height="30" as="geometry" />
        </mxCell>
        <mxCell id="vS_Rxtoo1o6F0y1KNGcY-69" value="" style="verticalLabelPosition=bottom;shadow=0;dashed=0;align=center;html=1;verticalAlign=top;strokeWidth=1;shape=mxgraph.mockup.markup.line;strokeColor=#999999;rounded=0;labelBackgroundColor=none;fillColor=#ffffff;fontFamily=Verdana;fontSize=12;fontColor=#000000;" parent="vS_Rxtoo1o6F0y1KNGcY-63" vertex="1">
          <mxGeometry y="230" width="1050" height="20" as="geometry" />
        </mxCell>
        <mxCell id="vS_Rxtoo1o6F0y1KNGcY-70" value="" style="verticalLabelPosition=bottom;shadow=0;dashed=0;align=center;html=1;verticalAlign=top;strokeWidth=1;shape=mxgraph.mockup.markup.line;strokeColor=#999999;rounded=0;labelBackgroundColor=none;fillColor=#ffffff;fontFamily=Verdana;fontSize=12;fontColor=#000000;" parent="vS_Rxtoo1o6F0y1KNGcY-63" vertex="1">
          <mxGeometry x="7.5" y="745" width="1050" height="20" as="geometry" />
        </mxCell>
        <mxCell id="vS_Rxtoo1o6F0y1KNGcY-73" value="&lt;font style=&quot;color: light-dark(rgb(0, 0, 0), rgb(60, 141, 188));&quot;&gt;Home&lt;/font&gt;" style="strokeWidth=1;shadow=0;dashed=0;align=center;html=1;shape=mxgraph.mockup.navigation.anchor;fontSize=17;fontColor=#666666;fontStyle=1;strokeColor=light-dark(#000000,#3C8DBC);" parent="vS_Rxtoo1o6F0y1KNGcY-63" vertex="1">
          <mxGeometry x="147.5" y="255" width="60" height="30" as="geometry" />
        </mxCell>
        <mxCell id="vS_Rxtoo1o6F0y1KNGcY-74" value="&gt;" style="strokeWidth=1;shadow=0;dashed=0;align=center;html=1;shape=mxgraph.mockup.navigation.anchor;fontSize=24;fontColor=#aaaaaa;fontStyle=1;" parent="vS_Rxtoo1o6F0y1KNGcY-63" vertex="1">
          <mxGeometry x="207.5" y="255" width="20" height="30" as="geometry" />
        </mxCell>
        <mxCell id="vS_Rxtoo1o6F0y1KNGcY-75" value="App" style="strokeWidth=1;shadow=0;dashed=0;align=center;html=1;shape=mxgraph.mockup.navigation.anchor;fontSize=17;fontColor=#666666;fontStyle=1;" parent="vS_Rxtoo1o6F0y1KNGcY-63" vertex="1">
          <mxGeometry x="225" y="255" width="60" height="30" as="geometry" />
        </mxCell>
        <mxCell id="vS_Rxtoo1o6F0y1KNGcY-76" value="User" style="text;html=1;points=[];align=left;verticalAlign=top;spacingTop=-4;fontSize=12;fontFamily=Verdana;whiteSpace=wrap;" parent="vS_Rxtoo1o6F0y1KNGcY-63" vertex="1">
          <mxGeometry x="952.5" y="145" width="30" height="20" as="geometry" />
        </mxCell>
        <mxCell id="vS_Rxtoo1o6F0y1KNGcY-77" value="Icon" style="icon;html=1;image=img/clipart/Gear_128x128.png;arcSize=24;" parent="vS_Rxtoo1o6F0y1KNGcY-63" vertex="1">
          <mxGeometry x="20" y="135" width="40" height="40" as="geometry" />
        </mxCell>
        <mxCell id="vS_Rxtoo1o6F0y1KNGcY-78" value="" style="verticalLabelPosition=bottom;shadow=0;dashed=0;align=center;html=1;verticalAlign=top;strokeWidth=1;shape=mxgraph.mockup.markup.line;strokeColor=#999999;rounded=0;labelBackgroundColor=none;fillColor=#ffffff;fontFamily=Verdana;fontSize=12;fontColor=#000000;" parent="vS_Rxtoo1o6F0y1KNGcY-63" vertex="1">
          <mxGeometry x="30" y="480" width="980" height="20" as="geometry" />
        </mxCell>
        <mxCell id="vS_Rxtoo1o6F0y1KNGcY-79" value="" style="verticalLabelPosition=bottom;shadow=0;dashed=0;align=center;html=1;verticalAlign=top;strokeWidth=1;shape=mxgraph.mockup.markup.line;strokeColor=#999999;rounded=0;labelBackgroundColor=none;fillColor=#ffffff;fontFamily=Verdana;fontSize=12;fontColor=#000000;" parent="vS_Rxtoo1o6F0y1KNGcY-63" vertex="1">
          <mxGeometry x="30" y="520" width="980" height="20" as="geometry" />
        </mxCell>
        <mxCell id="vS_Rxtoo1o6F0y1KNGcY-81" value="" style="verticalLabelPosition=bottom;shadow=0;dashed=0;align=center;html=1;verticalAlign=top;strokeWidth=1;shape=mxgraph.mockup.markup.line;strokeColor=#999999;rounded=0;labelBackgroundColor=none;fillColor=#ffffff;fontFamily=Verdana;fontSize=12;fontColor=#000000;" parent="vS_Rxtoo1o6F0y1KNGcY-63" vertex="1">
          <mxGeometry x="31.25" y="555" width="978.75" height="20" as="geometry" />
        </mxCell>
        <mxCell id="vS_Rxtoo1o6F0y1KNGcY-83" value="" style="verticalLabelPosition=bottom;shadow=0;dashed=0;align=center;html=1;verticalAlign=top;strokeWidth=1;shape=mxgraph.mockup.markup.line;strokeColor=#999999;rounded=0;labelBackgroundColor=none;fillColor=#ffffff;fontFamily=Verdana;fontSize=12;fontColor=#000000;" parent="vS_Rxtoo1o6F0y1KNGcY-63" vertex="1">
          <mxGeometry x="31.25" y="590" width="978.75" height="20" as="geometry" />
        </mxCell>
        <mxCell id="vS_Rxtoo1o6F0y1KNGcY-85" value="" style="verticalLabelPosition=bottom;shadow=0;dashed=0;align=center;html=1;verticalAlign=top;strokeWidth=1;shape=mxgraph.mockup.markup.line;strokeColor=#999999;rounded=0;labelBackgroundColor=none;fillColor=#ffffff;fontFamily=Verdana;fontSize=12;fontColor=#000000;" parent="vS_Rxtoo1o6F0y1KNGcY-63" vertex="1">
          <mxGeometry x="31.25" y="630" width="978.75" height="20" as="geometry" />
        </mxCell>
        <mxCell id="vS_Rxtoo1o6F0y1KNGcY-94" value="" style="fillColor=#36B37E;strokeColor=none;rounded=1;arcSize=50;sketch=0;hachureGap=4;pointerEvents=0;fontFamily=Architects Daughter;fontSource=https%3A%2F%2Ffonts.googleapis.com%2Fcss%3Ffamily%3DArchitects%2BDaughter;fontSize=20;" parent="vS_Rxtoo1o6F0y1KNGcY-63" vertex="1">
          <mxGeometry x="555" y="137.5" width="50" height="25" as="geometry" />
        </mxCell>
        <mxCell id="vS_Rxtoo1o6F0y1KNGcY-95" value="" style="shape=ellipse;strokeColor=none;fillColor=#ffffff;sketch=0;hachureGap=4;pointerEvents=0;fontFamily=Architects Daughter;fontSource=https%3A%2F%2Ffonts.googleapis.com%2Fcss%3Ffamily%3DArchitects%2BDaughter;fontSize=20;" parent="vS_Rxtoo1o6F0y1KNGcY-94" vertex="1">
          <mxGeometry x="1" y="0.5" width="16" height="16" relative="1" as="geometry">
            <mxPoint x="-18" y="-8" as="offset" />
          </mxGeometry>
        </mxCell>
        <mxCell id="vS_Rxtoo1o6F0y1KNGcY-96" value="" style="html=1;shadow=0;dashed=0;shape=mxgraph.atlassian.check;strokeColor=#ffffff;strokeWidth=2;sketch=1;hachureGap=4;pointerEvents=0;fontFamily=Architects Daughter;fontSource=https%3A%2F%2Ffonts.googleapis.com%2Fcss%3Ffamily%3DArchitects%2BDaughter;fontSize=20;" parent="vS_Rxtoo1o6F0y1KNGcY-94" vertex="1">
          <mxGeometry y="0.5" width="10" height="8" relative="1" as="geometry">
            <mxPoint x="6" y="-5" as="offset" />
          </mxGeometry>
        </mxCell>
        <mxCell id="vS_Rxtoo1o6F0y1KNGcY-97" value="" style="sketch=0;pointerEvents=1;shadow=0;dashed=0;html=1;strokeColor=none;labelPosition=center;verticalLabelPosition=bottom;verticalAlign=top;align=center;fillColor=#505050;shape=mxgraph.mscae.intune.account_portal" parent="vS_Rxtoo1o6F0y1KNGcY-63" vertex="1">
          <mxGeometry x="905" y="135" width="30" height="30" as="geometry" />
        </mxCell>
        <mxCell id="vS_Rxtoo1o6F0y1KNGcY-106" value="&lt;span style=&quot;box-sizing: border-box; font-weight: bolder; color: rgb(134, 144, 153); font-family: &amp;quot;Source Sans Pro&amp;quot;, -apple-system, BlinkMacSystemFont, &amp;quot;Segoe UI&amp;quot;, Roboto, &amp;quot;Helvetica Neue&amp;quot;, Arial, sans-serif, &amp;quot;Apple Color Emoji&amp;quot;, &amp;quot;Segoe UI Emoji&amp;quot;, &amp;quot;Segoe UI Symbol&amp;quot;; font-size: 14px; text-align: left;&quot;&gt;Copyright © 2025 IPBase.&lt;/span&gt;&lt;span style=&quot;color: rgb(134, 144, 153); font-family: &amp;quot;Source Sans Pro&amp;quot;, -apple-system, BlinkMacSystemFont, &amp;quot;Segoe UI&amp;quot;, Roboto, &amp;quot;Helvetica Neue&amp;quot;, Arial, sans-serif, &amp;quot;Apple Color Emoji&amp;quot;, &amp;quot;Segoe UI Emoji&amp;quot;, &amp;quot;Segoe UI Symbol&amp;quot;; font-size: 14px; text-align: left; background-color: rgb(255, 255, 255);&quot;&gt;&amp;nbsp;All rights reserved.&lt;/span&gt;" style="text;html=1;align=center;verticalAlign=middle;whiteSpace=wrap;rounded=0;" parent="vS_Rxtoo1o6F0y1KNGcY-63" vertex="1">
          <mxGeometry x="8" y="765" width="292" height="30" as="geometry" />
        </mxCell>
        <mxCell id="vS_Rxtoo1o6F0y1KNGcY-107" value="" style="verticalLabelPosition=bottom;shadow=0;dashed=0;align=center;html=1;verticalAlign=top;strokeWidth=1;shape=mxgraph.mockup.markup.line;strokeColor=#999999;rounded=0;labelBackgroundColor=none;fillColor=#ffffff;fontFamily=Verdana;fontSize=12;fontColor=#000000;rotation=90;" parent="vS_Rxtoo1o6F0y1KNGcY-63" vertex="1">
          <mxGeometry x="130" y="267.5" width="30" height="5" as="geometry" />
        </mxCell>
        <mxCell id="vS_Rxtoo1o6F0y1KNGcY-108" value="Title" style="strokeWidth=1;shadow=0;dashed=0;align=center;html=1;shape=mxgraph.mockup.navigation.anchor;fontSize=22;fontColor=#666666;fontStyle=1;" parent="vS_Rxtoo1o6F0y1KNGcY-63" vertex="1">
          <mxGeometry x="45" y="255" width="60" height="30" as="geometry" />
        </mxCell>
        <mxCell id="vS_Rxtoo1o6F0y1KNGcY-109" value="" style="verticalLabelPosition=bottom;shadow=0;dashed=0;align=center;html=1;verticalAlign=top;strokeWidth=1;shape=mxgraph.mockup.navigation.scrollBar;strokeColor=#999999;barPos=98.563;fillColor2=#99ddff;strokeColor2=none;direction=north;" parent="vS_Rxtoo1o6F0y1KNGcY-63" vertex="1">
          <mxGeometry x="1037.5" y="250" width="20" height="500" as="geometry" />
        </mxCell>
        <mxCell id="vS_Rxtoo1o6F0y1KNGcY-110" value="&lt;span style=&quot;box-sizing: border-box; font-weight: bolder; color: rgb(134, 144, 153); font-family: &amp;quot;Source Sans Pro&amp;quot;, -apple-system, BlinkMacSystemFont, &amp;quot;Segoe UI&amp;quot;, Roboto, &amp;quot;Helvetica Neue&amp;quot;, Arial, sans-serif, &amp;quot;Apple Color Emoji&amp;quot;, &amp;quot;Segoe UI Emoji&amp;quot;, &amp;quot;Segoe UI Symbol&amp;quot;; font-size: 14px; text-align: left; background-color: rgb(255, 255, 255);&quot;&gt;IPTV version&lt;/span&gt;&lt;span style=&quot;color: rgb(134, 144, 153); font-family: &amp;quot;Source Sans Pro&amp;quot;, -apple-system, BlinkMacSystemFont, &amp;quot;Segoe UI&amp;quot;, Roboto, &amp;quot;Helvetica Neue&amp;quot;, Arial, sans-serif, &amp;quot;Apple Color Emoji&amp;quot;, &amp;quot;Segoe UI Emoji&amp;quot;, &amp;quot;Segoe UI Symbol&amp;quot;; font-size: 14px; text-align: left; background-color: rgb(255, 255, 255);&quot;&gt;&amp;nbsp;2.0&lt;/span&gt;" style="text;html=1;align=center;verticalAlign=middle;whiteSpace=wrap;rounded=0;" parent="vS_Rxtoo1o6F0y1KNGcY-63" vertex="1">
          <mxGeometry x="922.75" y="765" width="114.5" height="30" as="geometry" />
        </mxCell>
        <mxCell id="vS_Rxtoo1o6F0y1KNGcY-111" value="" style="shape=ext;double=1;rounded=1;whiteSpace=wrap;html=1;arcSize=5;" parent="vS_Rxtoo1o6F0y1KNGcY-63" vertex="1">
          <mxGeometry x="537" y="297.5" width="243" height="162.5" as="geometry" />
        </mxCell>
        <mxCell id="vS_Rxtoo1o6F0y1KNGcY-112" value="" style="shape=ext;double=1;rounded=1;whiteSpace=wrap;html=1;arcSize=8;" parent="vS_Rxtoo1o6F0y1KNGcY-63" vertex="1">
          <mxGeometry x="790" y="297.5" width="240" height="82.5" as="geometry" />
        </mxCell>
        <mxCell id="vS_Rxtoo1o6F0y1KNGcY-113" value="" style="shape=ext;double=1;rounded=1;whiteSpace=wrap;html=1;arcSize=10;" parent="vS_Rxtoo1o6F0y1KNGcY-63" vertex="1">
          <mxGeometry x="790" y="390" width="240" height="70" as="geometry" />
        </mxCell>
        <mxCell id="vS_Rxtoo1o6F0y1KNGcY-114" value="" style="sketch=0;aspect=fixed;pointerEvents=1;shadow=0;dashed=0;html=1;strokeColor=none;labelPosition=center;verticalLabelPosition=bottom;verticalAlign=top;align=center;fillColor=#00188D;shape=mxgraph.mscae.enterprise.settings" parent="vS_Rxtoo1o6F0y1KNGcY-63" vertex="1">
          <mxGeometry x="1012.25" y="137.5" width="25" height="25" as="geometry" />
        </mxCell>
        <mxCell id="vS_Rxtoo1o6F0y1KNGcY-116" value="" style="sketch=0;pointerEvents=1;shadow=0;dashed=0;html=1;strokeColor=none;labelPosition=center;verticalLabelPosition=bottom;verticalAlign=top;align=center;fillColor=#505050;shape=mxgraph.mscae.oms.assessments" parent="vS_Rxtoo1o6F0y1KNGcY-63" vertex="1">
          <mxGeometry x="801.5" y="401.25" width="46" height="45" as="geometry" />
        </mxCell>
        <mxCell id="vS_Rxtoo1o6F0y1KNGcY-117" value="" style="sketch=0;pointerEvents=1;shadow=0;dashed=0;html=1;strokeColor=none;labelPosition=center;verticalLabelPosition=bottom;verticalAlign=top;align=center;fillColor=#505050;shape=mxgraph.mscae.oms.capacity" parent="vS_Rxtoo1o6F0y1KNGcY-63" vertex="1">
          <mxGeometry x="804" y="313.75" width="41" height="50" as="geometry" />
        </mxCell>
        <mxCell id="vS_Rxtoo1o6F0y1KNGcY-119" value="" style="html=1;verticalLabelPosition=bottom;labelBackgroundColor=#ffffff;verticalAlign=top;shadow=0;dashed=0;strokeWidth=2;shape=mxgraph.ios7.misc.options;fillColor=#222222;sketch=0;" parent="vS_Rxtoo1o6F0y1KNGcY-63" vertex="1">
          <mxGeometry x="260" y="150" width="30" height="20" as="geometry" />
        </mxCell>
        <mxCell id="vS_Rxtoo1o6F0y1KNGcY-120" value="" style="verticalLabelPosition=bottom;aspect=fixed;html=1;shape=mxgraph.salesforce.energy;" parent="vS_Rxtoo1o6F0y1KNGcY-63" vertex="1">
          <mxGeometry x="530" y="138.75" width="17.82" height="23.75" as="geometry" />
        </mxCell>
        <mxCell id="vS_Rxtoo1o6F0y1KNGcY-121" value="Users" style="text;html=1;points=[];align=left;verticalAlign=top;spacingTop=-4;fontSize=18;fontFamily=Verdana;whiteSpace=wrap;" parent="vS_Rxtoo1o6F0y1KNGcY-63" vertex="1">
          <mxGeometry x="650" y="185" width="30" height="20" as="geometry" />
        </mxCell>
        <mxCell id="vS_Rxtoo1o6F0y1KNGcY-126" value="Search &amp;lt;&amp;lt;item&amp;gt;&amp;gt;" style="strokeWidth=1;shadow=0;dashed=0;align=center;html=1;shape=mxgraph.mockup.forms.searchBox;strokeColor=#999999;mainText=;strokeColor2=#008cff;fontColor=#666666;fontSize=17;align=left;spacingLeft=3;rounded=0;labelBackgroundColor=none;" parent="vS_Rxtoo1o6F0y1KNGcY-63" vertex="1">
          <mxGeometry x="15" y="302.5" width="265" height="30" as="geometry" />
        </mxCell>
        <mxCell id="5XZRG9URkLQvCpiwJF7V-10" value="" style="verticalLabelPosition=bottom;shadow=0;dashed=0;align=center;html=1;verticalAlign=top;strokeWidth=1;shape=mxgraph.mockup.graphics.pieChart;parts=10,20,35;partColors=#e0e0e0,#d0d0d0,#c0c0c0,#b0b0b0,#a0a0a0;strokeWidth=2;fillColor=#f5f5f5;fontColor=#333333;strokeColor=#666666;" parent="vS_Rxtoo1o6F0y1KNGcY-63" vertex="1">
          <mxGeometry x="680" y="345" width="90" height="85" as="geometry" />
        </mxCell>
        <mxCell id="5XZRG9URkLQvCpiwJF7V-11" value="Select Action" style="strokeWidth=1;shadow=0;dashed=0;align=center;html=1;shape=mxgraph.mockup.forms.comboBox;strokeColor=#999999;fillColor=#ddeeff;align=left;fillColor2=#aaddff;mainText=;fontColor=#666666;fontSize=17;spacingLeft=3;" parent="vS_Rxtoo1o6F0y1KNGcY-63" vertex="1">
          <mxGeometry x="15" y="395" width="215" height="36" as="geometry" />
        </mxCell>
        <mxCell id="5XZRG9URkLQvCpiwJF7V-23" value="ADD &amp;lt;&amp;lt;Item&amp;gt;&amp;gt;" style="strokeWidth=1;shadow=0;dashed=0;align=center;html=1;shape=mxgraph.mockup.buttons.button;strokeColor=#666666;fontColor=#ffffff;mainText=;buttonStyle=round;fontSize=17;fontStyle=1;fillColor=#97D077;whiteSpace=wrap;" parent="vS_Rxtoo1o6F0y1KNGcY-63" vertex="1">
          <mxGeometry x="130" y="437.5" width="150" height="30" as="geometry" />
        </mxCell>
        <mxCell id="5XZRG9URkLQvCpiwJF7V-25" value="&amp;lt;&amp;lt;Stay the same&amp;gt;&amp;gt;" style="text;strokeColor=none;fillColor=none;html=1;fontSize=24;fontStyle=1;verticalAlign=middle;align=center;" parent="vS_Rxtoo1o6F0y1KNGcY-63" vertex="1">
          <mxGeometry x="482.5" y="562.5" width="100" height="40" as="geometry" />
        </mxCell>
        <mxCell id="5XZRG9URkLQvCpiwJF7V-32" value="" style="dashed=0;labelPosition=right;align=left;shape=mxgraph.gmdl.checkbox;strokeColor=#666666;fillColor=none;strokeWidth=2;aspect=fixed;sketch=0;html=1;" parent="vS_Rxtoo1o6F0y1KNGcY-63" vertex="1">
          <mxGeometry x="40" y="504" width="16" height="16" as="geometry" />
        </mxCell>
        <mxCell id="5XZRG9URkLQvCpiwJF7V-33" value="" style="dashed=0;labelPosition=right;align=left;shape=mxgraph.gmdl.checkbox;strokeColor=none;fillColor=#009587;strokeWidth=2;aspect=fixed;sketch=0;html=1;" parent="vS_Rxtoo1o6F0y1KNGcY-63" vertex="1">
          <mxGeometry x="40" y="539" width="16" height="16" as="geometry" />
        </mxCell>
        <mxCell id="5XZRG9URkLQvCpiwJF7V-34" value="" style="dashed=0;labelPosition=right;align=left;shape=mxgraph.gmdl.checkbox;strokeColor=#666666;fillColor=none;strokeWidth=2;aspect=fixed;sketch=0;html=1;" parent="vS_Rxtoo1o6F0y1KNGcY-63" vertex="1">
          <mxGeometry x="40" y="539" width="16" height="16" as="geometry" />
        </mxCell>
        <mxCell id="5XZRG9URkLQvCpiwJF7V-35" value="&gt;" style="strokeWidth=1;shadow=0;dashed=0;align=center;html=1;shape=mxgraph.mockup.navigation.anchor;fontSize=24;fontColor=#aaaaaa;fontStyle=1;" parent="vS_Rxtoo1o6F0y1KNGcY-63" vertex="1">
          <mxGeometry x="280" y="255" width="20" height="30" as="geometry" />
        </mxCell>
        <mxCell id="5XZRG9URkLQvCpiwJF7V-37" value="Title" style="strokeWidth=1;shadow=0;dashed=0;align=center;html=1;shape=mxgraph.mockup.navigation.anchor;fontSize=17;fontColor=#666666;fontStyle=1;" parent="vS_Rxtoo1o6F0y1KNGcY-63" vertex="1">
          <mxGeometry x="290" y="255" width="60" height="30" as="geometry" />
        </mxCell>
        <mxCell id="5XZRG9URkLQvCpiwJF7V-40" value="Show all" style="strokeWidth=1;shadow=0;dashed=0;align=center;html=1;shape=mxgraph.mockup.buttons.button;strokeColor=#666666;fontColor=#ffffff;mainText=;buttonStyle=round;fontSize=17;fontStyle=1;fillColor=#008cff;whiteSpace=wrap;" parent="vS_Rxtoo1o6F0y1KNGcY-63" vertex="1">
          <mxGeometry x="15" y="440" width="112.5" height="25" as="geometry" />
        </mxCell>
        <mxCell id="5XZRG9URkLQvCpiwJF7V-42" value="Go" style="strokeWidth=1;shadow=0;dashed=0;align=center;html=1;shape=mxgraph.mockup.buttons.button;strokeColor=#666666;fontColor=#ffffff;mainText=;buttonStyle=round;fontSize=17;fontStyle=1;fillColor=#008cff;whiteSpace=wrap;" parent="vS_Rxtoo1o6F0y1KNGcY-63" vertex="1">
          <mxGeometry x="240" y="395" width="40" height="36" as="geometry" />
        </mxCell>
        <mxCell id="5XZRG9URkLQvCpiwJF7V-43" value="Option 1" style="strokeWidth=1;shadow=0;dashed=0;align=center;html=1;shape=mxgraph.mockup.forms.comboBox;strokeColor=#999999;fillColor=#ddeeff;align=left;fillColor2=#aaddff;mainText=;fontColor=#666666;fontSize=17;spacingLeft=3;" parent="vS_Rxtoo1o6F0y1KNGcY-63" vertex="1">
          <mxGeometry x="400" y="346.25" width="110" height="30" as="geometry" />
        </mxCell>
        <mxCell id="5XZRG9URkLQvCpiwJF7V-44" value="Option 2" style="strokeWidth=1;shadow=0;dashed=0;align=center;html=1;shape=mxgraph.mockup.forms.comboBox;strokeColor=#999999;fillColor=#ddeeff;align=left;fillColor2=#aaddff;mainText=;fontColor=#666666;fontSize=17;spacingLeft=3;" parent="vS_Rxtoo1o6F0y1KNGcY-63" vertex="1">
          <mxGeometry x="400" y="302.5" width="110" height="30" as="geometry" />
        </mxCell>
        <mxCell id="5XZRG9URkLQvCpiwJF7V-45" value="" style="verticalLabelPosition=bottom;shadow=0;dashed=0;align=center;html=1;verticalAlign=top;strokeWidth=1;shape=mxgraph.mockup.graphics.lineChart;strokeColor=none;strokeColor2=#666666;strokeColor3=#008cff;strokeColor4=#dddddd;" parent="vS_Rxtoo1o6F0y1KNGcY-63" vertex="1">
          <mxGeometry x="552" y="330" width="118" height="100" as="geometry" />
        </mxCell>
        <mxCell id="5XZRG9URkLQvCpiwJF7V-47" value="" style="shape=image;verticalLabelPosition=bottom;labelBackgroundColor=default;verticalAlign=top;aspect=fixed;imageAspect=0;image=data:image/png,iVBORw0KGgoAAAANSUhEUgAAAPEAAAAjCAYAAABFPewtAAAAAXNSR0IArs4c6QAAAARnQU1BAACxjwv8YQUAAAAJcEhZcwAADsMAAA7DAcdvqGQAAAeiSURBVHhe7Z1vTJvHHce/eWyCjRdsFzIwJay4aRV3TcKfZYgmpZF5sRWk/Wmqro03aRpI0wqa0Mi77GVewoSmutWkOC9WkbZTibK10EUTVtoxUEZjGjLihCV25CBMmhCbuMYG/2H3mHOTqmp4HJ8jHu33kU7Pc3ePzo/v7nv3+50fP7clsryyBoIgVIvEjwRBqJTMTByNxZBKppBMJZFkR1E8OeTlZ4Xj2iEbPyOIzYNWq2VaSvKYGLRaDbQaOWhRUqLnqUzEN2+H11LpFMrNpShiHyySLQNuflY41nrs/Ew8vhtBWHdYeEw8VP6DUXP5hSo7wQaG26ElSJIGhpKSTJokz76FEDBBEOKRdVpuNiKVSvOUjIhTJGCCUBGyXmXdZpFE+sAEQTwa7ve3aXWaIFQOiZggVA6JmCBUDomYIFQOiZggVA6JmCBUzqYQcVvTLgy/dgCxnhaMNvBEUSRuwfnOWejfOAvLG26Y374M773fyfMnOo/+9z6BmZevP34B7ijPE0x48hy2DIyhP8gTRBCcQcOAO/N0XTY4pnmeIMJXL6JVrvu3WDv8cQxHvDGeky+L6D/x1XvPhBMz8PMr8ia9hJNDrH2dn8DqZG38zqzY/iOATSFii1aD8J0YwjwuEv+nAUxZ9yLUfRDB15vgKl5A++gtniuAVByosiEol9/dgqHyEFr/fp1nCiR6FR3/TqD+3iOzYlgD4qUV8PXYM4+wymFwD88TwZ1ZHBpZgv3HLQj95iBiv7TikLGYZ+ZLGXp/de++13qaMVgh4fD3rKjlV+RLfGoWjngV/F0t8HU1wamZR/dEhOduDnITcXYEEjwSuf41A8eZKEI8LpLa5kYcbzJDJ0ckA+zf0cN/V+BUWWpF7/Pb18uHFg3bWQddXsVCJi6KGE7+LQB83wpHEU8Sxe04vPpiFOoJ5anzC/A88QSO7uBPBZZWobmqMHNHfPoSelEN5x5xI10wsgKTUQdTJqZHfbkWoZXVTEwIaS6m7PEhUF6b86Po+8slJKLTePMP7+M/Ar/HoyMNz80YaksNPC6QRAx+32V0Ta+gY+8OVPJkEYQnp9GBGrj2rcJzlyeKJBGBc/g8Ok9fhCsg0hdYhfd2Em01lQgHAjjl8cEdLFTHuYVj56Lo2L+TC04Mtfuq0XbDh07PIuKJRZxkRpbDVsZz8yUJ98g4c19iiF+5gHb3Ik/PDWUijnjw5ttBvNBuxkd/+hjVh1/Gs1t5npqY9+LI9WIcbdzOE0QRwJETk2j4cB5eSzWO2gTavBkzWsLgj8R2zixxkwEdZUa07X8avTvTcJ2eROeMKKFFEGTu78Snkzh0cZkNFlH0nxpD+8QSzxfIlTlm6paho4bHRWGoQPcOCW7PDCxvXcCg5Sl0CTNbtLC32dDg+QxO424cS3jx3NnchaxIxAtj56D9wavYd20Uo+Uv4MUqnqEmonPo/uAWbAfr0PEYTxNGDfp+zXy+3zKf+FsLeObdWUHm9LoZ7bUYWSf1sZlsCX7ZmvivD1N3+CV5oqvZhePtVthM22B7di9O1RfDNR0A8/SFYdtdh9H2XXipaTeG7WaMe4PiFp44U9cjMD9eLswXXieNqTOT6CqxwdfZguDPn8ZLwZmHEto3IjG//kAJ+ibmUG+vxjOBhZzrRpGIK1v2I3nmXUw+2YrWz0dxqgDrNgUlvYj+92Yx/tRuDAr0l76OFrbvmmFbXMJ4giflxReI6Y14TopgJBBiIc4GhzS8CyF4vuCXCMakY10imRa0yFgGGxsw4/f/Od60lQlN9J9uIvB8nkRzhWgLaxFDAelL81n3WDWO2csQ9uUutG9E7ptjyzjSXIGR4TnE6nJflFNmThv24PVfWPDxX0N48XevQn/mtHp8YrmS/nwBfUYr3KwBxMIEdXYKv7+a/cmEdf7gMvxFW2ERsgC1HR0/acTxL0MFmtlA4Xi+UYzZyOrGNXwZ3uyAw+LOi1HUP14mzKdvs5lx6QqzJjLrNqy+ZkLwlxsFz5iszpclmPXKurNydKjVrWL8vnWC8M04a98iiJkKmE/80Sz8TXXoiszCVWp7qElmy7XA/Fqh3m4g/2a3MbtwqacKX33JThSugXPo5LEHsdGbPdyn3Wj9muWwFX0/O4DeDb62krczxG9chmNkAe4060SskwZTxej9YR2O7dy4MXJ/+8N1OAbm0KDg3mU2Lj8J7z/Pwz7FBqFiCfGVJDNJazD+052oVKAHZfcfw8Q/PkPblRWYNUCoyIyh1/bCrmBtUXn95FYvWRSVv3gVjvfnMKIpRoN2BZ6YAc5XGnG47MEVlHvb5oZc/rfL1yelTSDi/NhIxPmQS0PEoxGEmYArS5Wv+D2KhlZWfhLhMBOy3gATE7NScrr/RAwLMY1K6yeN+N0oczGUt++juPesiEXbH/+36AzbcuqgmwstTKZtOQk4Z4r0Kq4fCbrSzdu+JGKCUDkkYoJQOSRiglA5JGKCUDkkYoJQOZK83QRBEOpC3tIliyTv7SJvDUEQhDqQ9SrrNgubiTWZvV1IyASx+cnuxSRvqpZlfVfE5WWkUvKuiCzQrogEkTeF2RVRy8QrQcOOBv29x3ppk3GCUDm0Ok0Qqgb4H9fu+BaV7GDHAAAAAElFTkSuQmCC;" parent="vS_Rxtoo1o6F0y1KNGcY-63" vertex="1">
          <mxGeometry x="780" y="700" width="241" height="35" as="geometry" />
        </mxCell>
        <mxCell id="JKTL-fcDX_-RQfgU6i8k-58" value="&amp;lt;&amp;lt;More custom&amp;gt;&amp;gt;" style="text;html=1;align=center;verticalAlign=middle;whiteSpace=wrap;rounded=0;fontSize=30;fontStyle=1" vertex="1" parent="vS_Rxtoo1o6F0y1KNGcY-63">
          <mxGeometry x="52" y="346.25" width="285" height="30" as="geometry" />
        </mxCell>
        <UserObject label="&lt;span style=&quot;color: rgb(33, 37, 41); font-family: &amp;quot;Source Sans Pro&amp;quot;, -apple-system, BlinkMacSystemFont, &amp;quot;Segoe UI&amp;quot;, Roboto, &amp;quot;Helvetica Neue&amp;quot;, Arial, sans-serif, &amp;quot;Apple Color Emoji&amp;quot;, &amp;quot;Segoe UI Emoji&amp;quot;, &amp;quot;Segoe UI Symbol&amp;quot;; font-size: 12.8px; font-style: normal; font-variant-ligatures: normal; font-variant-caps: normal; font-weight: 400; letter-spacing: normal; orphans: 2; text-align: left; text-indent: 0px; text-transform: none; widows: 2; word-spacing: 0px; -webkit-text-stroke-width: 0px; white-space: normal; background-color: rgb(244, 246, 249); text-decoration-thickness: initial; text-decoration-style: initial; text-decoration-color: initial; display: inline !important; float: none;&quot;&gt;...result (&lt;/span&gt;&lt;a href=&quot;https://cms-stg2.ipbasevn.com/admin/app/media/?&quot; style=&quot;box-sizing: border-box; color: rgb(60, 141, 188); text-decoration: none; background-color: rgb(244, 246, 249); font-family: &amp;quot;Source Sans Pro&amp;quot;, -apple-system, BlinkMacSystemFont, &amp;quot;Segoe UI&amp;quot;, Roboto, &amp;quot;Helvetica Neue&amp;quot;, Arial, sans-serif, &amp;quot;Apple Color Emoji&amp;quot;, &amp;quot;Segoe UI Emoji&amp;quot;, &amp;quot;Segoe UI Symbol&amp;quot;; font-size: 12.8px; font-style: normal; font-variant-ligatures: normal; font-variant-caps: normal; font-weight: 400; letter-spacing: normal; orphans: 2; text-align: left; text-indent: 0px; text-transform: none; widows: 2; word-spacing: 0px; -webkit-text-stroke-width: 0px; white-space: normal;&quot;&gt;&lt;span&gt;&amp;nbsp;...&lt;/span&gt;&amp;nbsp;total&lt;span&gt;&amp;nbsp;&lt;/span&gt;&lt;/a&gt;&lt;span style=&quot;color: rgb(33, 37, 41); font-family: &amp;quot;Source Sans Pro&amp;quot;, -apple-system, BlinkMacSystemFont, &amp;quot;Segoe UI&amp;quot;, Roboto, &amp;quot;Helvetica Neue&amp;quot;, Arial, sans-serif, &amp;quot;Apple Color Emoji&amp;quot;, &amp;quot;Segoe UI Emoji&amp;quot;, &amp;quot;Segoe UI Symbol&amp;quot;; font-size: 12.8px; font-style: normal; font-variant-ligatures: normal; font-variant-caps: normal; font-weight: 400; letter-spacing: normal; orphans: 2; text-align: left; text-indent: 0px; text-transform: none; widows: 2; word-spacing: 0px; -webkit-text-stroke-width: 0px; white-space: normal; background-color: rgb(244, 246, 249); text-decoration-thickness: initial; text-decoration-style: initial; text-decoration-color: initial; display: inline !important; float: none;&quot;&gt;)&lt;/span&gt;" link="&lt;span style=&quot;color: rgb(33, 37, 41); font-family: &amp;quot;Source Sans Pro&amp;quot;, -apple-system, BlinkMacSystemFont, &amp;quot;Segoe UI&amp;quot;, Roboto, &amp;quot;Helvetica Neue&amp;quot;, Arial, sans-serif, &amp;quot;Apple Color Emoji&amp;quot;, &amp;quot;Segoe UI Emoji&amp;quot;, &amp;quot;Segoe UI Symbol&amp;quot;; font-size: 12.8px; font-style: normal; font-variant-ligatures: normal; font-variant-caps: normal; font-weight: 400; letter-spacing: normal; orphans: 2; text-align: left; text-indent: 0px; text-transform: none; widows: 2; word-spacing: 0px; -webkit-text-stroke-width: 0px; white-space: normal; background-color: rgb(244, 246, 249); text-decoration-thickness: initial; text-decoration-style: initial; text-decoration-color: initial; display: inline !important; float: none;&quot;&gt;1 result (&lt;/span&gt;&lt;a href=&quot;https://cms-stg2.ipbasevn.com/admin/app/media/?&quot; style=&quot;box-sizing: border-box; color: rgb(60, 141, 188); text-decoration: none; background-color: rgb(244, 246, 249); font-family: &amp;quot;Source Sans Pro&amp;quot;, -apple-system, BlinkMacSystemFont, &amp;quot;Segoe UI&amp;quot;, Roboto, &amp;quot;Helvetica Neue&amp;quot;, Arial, sans-serif, &amp;quot;Apple Color Emoji&amp;quot;, &amp;quot;Segoe UI Emoji&amp;quot;, &amp;quot;Segoe UI Symbol&amp;quot;; font-size: 12.8px; font-style: normal; font-variant-ligatures: normal; font-variant-caps: normal; font-weight: 400; letter-spacing: normal; orphans: 2; text-align: left; text-indent: 0px; text-transform: none; widows: 2; word-spacing: 0px; -webkit-text-stroke-width: 0px; white-space: normal;&quot;&gt;&lt;span&gt;&amp;nbsp;&lt;/span&gt;12 total&lt;span&gt;&amp;nbsp;&lt;/span&gt;&lt;/a&gt;&lt;span style=&quot;color: rgb(33, 37, 41); font-family: &amp;quot;Source Sans Pro&amp;quot;, -apple-system, BlinkMacSystemFont, &amp;quot;Segoe UI&amp;quot;, Roboto, &amp;quot;Helvetica Neue&amp;quot;, Arial, sans-serif, &amp;quot;Apple Color Emoji&amp;quot;, &amp;quot;Segoe UI Emoji&amp;quot;, &amp;quot;Segoe UI Symbol&amp;quot;; font-size: 12.8px; font-style: normal; font-variant-ligatures: normal; font-variant-caps: normal; font-weight: 400; letter-spacing: normal; orphans: 2; text-align: left; text-indent: 0px; text-transform: none; widows: 2; word-spacing: 0px; -webkit-text-stroke-width: 0px; white-space: normal; background-color: rgb(244, 246, 249); text-decoration-thickness: initial; text-decoration-style: initial; text-decoration-color: initial; display: inline !important; float: none;&quot;&gt;)&lt;/span&gt;" id="JKTL-fcDX_-RQfgU6i8k-125">
          <mxCell style="text;whiteSpace=wrap;html=1;" vertex="1" parent="vS_Rxtoo1o6F0y1KNGcY-63">
            <mxGeometry x="290" y="306.25" width="140" height="40" as="geometry" />
          </mxCell>
        </UserObject>
        <mxCell id="vS_Rxtoo1o6F0y1KNGcY-122" value="Admin" style="text;strokeColor=none;fillColor=none;html=1;fontSize=24;fontStyle=1;verticalAlign=middle;align=center;" parent="1" vertex="1">
          <mxGeometry x="-570" y="-80" width="100" height="40" as="geometry" />
        </mxCell>
        <mxCell id="vS_Rxtoo1o6F0y1KNGcY-123" value="List page" style="text;strokeColor=none;fillColor=none;html=1;fontSize=24;fontStyle=1;verticalAlign=middle;align=center;" parent="1" vertex="1">
          <mxGeometry x="520" y="-80" width="100" height="40" as="geometry" />
        </mxCell>
        <mxCell id="JKTL-fcDX_-RQfgU6i8k-1" value="" style="strokeWidth=1;shadow=0;dashed=0;align=center;html=1;shape=mxgraph.mockup.containers.browserWindow;rSize=0;strokeColor=#666666;mainText=,;recursiveResize=0;rounded=0;labelBackgroundColor=none;fontFamily=Verdana;fontSize=12" vertex="1" parent="1">
          <mxGeometry x="1570" y="-40" width="1065" height="820" as="geometry" />
        </mxCell>
        <mxCell id="JKTL-fcDX_-RQfgU6i8k-3" value="Change" style="strokeWidth=1;shadow=0;dashed=0;align=center;html=1;shape=mxgraph.mockup.containers.anchor;fontSize=17;fontColor=#666666;align=left;" vertex="1" parent="JKTL-fcDX_-RQfgU6i8k-1">
          <mxGeometry x="60" y="12" width="110" height="26" as="geometry" />
        </mxCell>
        <mxCell id="JKTL-fcDX_-RQfgU6i8k-4" value="&lt;a href=&quot;https://cms-stg2.ipbasevn.com/admin/app/gallerygroup/f781b646-374f-427b-bd6d-3aa956783eb2/change/?language=en&quot;&gt;Change Gallery group (English) | Admin&lt;/a&gt;" style="strokeWidth=1;shadow=0;dashed=0;align=center;html=1;shape=mxgraph.mockup.containers.anchor;rSize=0;fontSize=17;fontColor=#666666;align=left;" vertex="1" parent="JKTL-fcDX_-RQfgU6i8k-1">
          <mxGeometry x="130" y="60" width="250" height="26" as="geometry" />
        </mxCell>
        <mxCell id="JKTL-fcDX_-RQfgU6i8k-5" value="IPTV Admin" style="text;html=1;points=[];align=left;verticalAlign=top;spacingTop=-4;fontSize=30;fontFamily=Verdana" vertex="1" parent="JKTL-fcDX_-RQfgU6i8k-1">
          <mxGeometry x="70" y="135" width="180" height="50" as="geometry" />
        </mxCell>
        <mxCell id="JKTL-fcDX_-RQfgU6i8k-6" value="Search" style="strokeWidth=1;shadow=0;dashed=0;align=center;html=1;shape=mxgraph.mockup.forms.searchBox;strokeColor=#999999;mainText=;strokeColor2=#008cff;fontColor=#666666;fontSize=17;align=left;spacingLeft=3;rounded=0;labelBackgroundColor=none;" vertex="1" parent="JKTL-fcDX_-RQfgU6i8k-1">
          <mxGeometry x="650" y="135" width="220" height="30" as="geometry" />
        </mxCell>
        <mxCell id="JKTL-fcDX_-RQfgU6i8k-7" value="" style="verticalLabelPosition=bottom;shadow=0;dashed=0;align=center;html=1;verticalAlign=top;strokeWidth=1;shape=mxgraph.mockup.markup.line;strokeColor=#999999;rounded=0;labelBackgroundColor=none;fillColor=#ffffff;fontFamily=Verdana;fontSize=12;fontColor=#000000;" vertex="1" parent="JKTL-fcDX_-RQfgU6i8k-1">
          <mxGeometry y="230" width="1050" height="20" as="geometry" />
        </mxCell>
        <mxCell id="JKTL-fcDX_-RQfgU6i8k-8" value="" style="verticalLabelPosition=bottom;shadow=0;dashed=0;align=center;html=1;verticalAlign=top;strokeWidth=1;shape=mxgraph.mockup.markup.line;strokeColor=#999999;rounded=0;labelBackgroundColor=none;fillColor=#ffffff;fontFamily=Verdana;fontSize=12;fontColor=#000000;" vertex="1" parent="JKTL-fcDX_-RQfgU6i8k-1">
          <mxGeometry x="7.5" y="745" width="1050" height="20" as="geometry" />
        </mxCell>
        <mxCell id="JKTL-fcDX_-RQfgU6i8k-9" value="&lt;font style=&quot;color: light-dark(rgb(0, 0, 0), rgb(60, 141, 188));&quot;&gt;Home&lt;/font&gt;" style="strokeWidth=1;shadow=0;dashed=0;align=center;html=1;shape=mxgraph.mockup.navigation.anchor;fontSize=17;fontColor=#666666;fontStyle=1;strokeColor=light-dark(#000000,#3C8DBC);" vertex="1" parent="JKTL-fcDX_-RQfgU6i8k-1">
          <mxGeometry x="147.5" y="255" width="60" height="30" as="geometry" />
        </mxCell>
        <mxCell id="JKTL-fcDX_-RQfgU6i8k-10" value="&gt;" style="strokeWidth=1;shadow=0;dashed=0;align=center;html=1;shape=mxgraph.mockup.navigation.anchor;fontSize=24;fontColor=#aaaaaa;fontStyle=1;" vertex="1" parent="JKTL-fcDX_-RQfgU6i8k-1">
          <mxGeometry x="207.5" y="255" width="20" height="30" as="geometry" />
        </mxCell>
        <mxCell id="JKTL-fcDX_-RQfgU6i8k-11" value="App" style="strokeWidth=1;shadow=0;dashed=0;align=center;html=1;shape=mxgraph.mockup.navigation.anchor;fontSize=17;fontColor=#666666;fontStyle=1;" vertex="1" parent="JKTL-fcDX_-RQfgU6i8k-1">
          <mxGeometry x="225" y="255" width="60" height="30" as="geometry" />
        </mxCell>
        <mxCell id="JKTL-fcDX_-RQfgU6i8k-12" value="User" style="text;html=1;points=[];align=left;verticalAlign=top;spacingTop=-4;fontSize=12;fontFamily=Verdana;whiteSpace=wrap;" vertex="1" parent="JKTL-fcDX_-RQfgU6i8k-1">
          <mxGeometry x="952.5" y="145" width="30" height="20" as="geometry" />
        </mxCell>
        <mxCell id="JKTL-fcDX_-RQfgU6i8k-13" value="Icon" style="icon;html=1;image=img/clipart/Gear_128x128.png;arcSize=24;" vertex="1" parent="JKTL-fcDX_-RQfgU6i8k-1">
          <mxGeometry x="20" y="135" width="40" height="40" as="geometry" />
        </mxCell>
        <mxCell id="JKTL-fcDX_-RQfgU6i8k-19" value="" style="fillColor=#36B37E;strokeColor=none;rounded=1;arcSize=50;sketch=0;hachureGap=4;pointerEvents=0;fontFamily=Architects Daughter;fontSource=https%3A%2F%2Ffonts.googleapis.com%2Fcss%3Ffamily%3DArchitects%2BDaughter;fontSize=20;" vertex="1" parent="JKTL-fcDX_-RQfgU6i8k-1">
          <mxGeometry x="555" y="137.5" width="50" height="25" as="geometry" />
        </mxCell>
        <mxCell id="JKTL-fcDX_-RQfgU6i8k-20" value="" style="shape=ellipse;strokeColor=none;fillColor=#ffffff;sketch=0;hachureGap=4;pointerEvents=0;fontFamily=Architects Daughter;fontSource=https%3A%2F%2Ffonts.googleapis.com%2Fcss%3Ffamily%3DArchitects%2BDaughter;fontSize=20;" vertex="1" parent="JKTL-fcDX_-RQfgU6i8k-19">
          <mxGeometry x="1" y="0.5" width="16" height="16" relative="1" as="geometry">
            <mxPoint x="-18" y="-8" as="offset" />
          </mxGeometry>
        </mxCell>
        <mxCell id="JKTL-fcDX_-RQfgU6i8k-21" value="" style="html=1;shadow=0;dashed=0;shape=mxgraph.atlassian.check;strokeColor=#ffffff;strokeWidth=2;sketch=1;hachureGap=4;pointerEvents=0;fontFamily=Architects Daughter;fontSource=https%3A%2F%2Ffonts.googleapis.com%2Fcss%3Ffamily%3DArchitects%2BDaughter;fontSize=20;" vertex="1" parent="JKTL-fcDX_-RQfgU6i8k-19">
          <mxGeometry y="0.5" width="10" height="8" relative="1" as="geometry">
            <mxPoint x="6" y="-5" as="offset" />
          </mxGeometry>
        </mxCell>
        <mxCell id="JKTL-fcDX_-RQfgU6i8k-22" value="" style="sketch=0;pointerEvents=1;shadow=0;dashed=0;html=1;strokeColor=none;labelPosition=center;verticalLabelPosition=bottom;verticalAlign=top;align=center;fillColor=#505050;shape=mxgraph.mscae.intune.account_portal" vertex="1" parent="JKTL-fcDX_-RQfgU6i8k-1">
          <mxGeometry x="905" y="135" width="30" height="30" as="geometry" />
        </mxCell>
        <mxCell id="JKTL-fcDX_-RQfgU6i8k-23" value="&lt;span style=&quot;box-sizing: border-box; font-weight: bolder; color: rgb(134, 144, 153); font-family: &amp;quot;Source Sans Pro&amp;quot;, -apple-system, BlinkMacSystemFont, &amp;quot;Segoe UI&amp;quot;, Roboto, &amp;quot;Helvetica Neue&amp;quot;, Arial, sans-serif, &amp;quot;Apple Color Emoji&amp;quot;, &amp;quot;Segoe UI Emoji&amp;quot;, &amp;quot;Segoe UI Symbol&amp;quot;; font-size: 14px; text-align: left;&quot;&gt;Copyright © 2025 IPBase.&lt;/span&gt;&lt;span style=&quot;color: rgb(134, 144, 153); font-family: &amp;quot;Source Sans Pro&amp;quot;, -apple-system, BlinkMacSystemFont, &amp;quot;Segoe UI&amp;quot;, Roboto, &amp;quot;Helvetica Neue&amp;quot;, Arial, sans-serif, &amp;quot;Apple Color Emoji&amp;quot;, &amp;quot;Segoe UI Emoji&amp;quot;, &amp;quot;Segoe UI Symbol&amp;quot;; font-size: 14px; text-align: left; background-color: rgb(255, 255, 255);&quot;&gt;&amp;nbsp;All rights reserved.&lt;/span&gt;" style="text;html=1;align=center;verticalAlign=middle;whiteSpace=wrap;rounded=0;" vertex="1" parent="JKTL-fcDX_-RQfgU6i8k-1">
          <mxGeometry x="8" y="765" width="292" height="30" as="geometry" />
        </mxCell>
        <mxCell id="JKTL-fcDX_-RQfgU6i8k-24" value="" style="verticalLabelPosition=bottom;shadow=0;dashed=0;align=center;html=1;verticalAlign=top;strokeWidth=1;shape=mxgraph.mockup.markup.line;strokeColor=#999999;rounded=0;labelBackgroundColor=none;fillColor=#ffffff;fontFamily=Verdana;fontSize=12;fontColor=#000000;rotation=90;" vertex="1" parent="JKTL-fcDX_-RQfgU6i8k-1">
          <mxGeometry x="130" y="267.5" width="30" height="5" as="geometry" />
        </mxCell>
        <mxCell id="JKTL-fcDX_-RQfgU6i8k-25" value="Title" style="strokeWidth=1;shadow=0;dashed=0;align=center;html=1;shape=mxgraph.mockup.navigation.anchor;fontSize=22;fontColor=#666666;fontStyle=1;" vertex="1" parent="JKTL-fcDX_-RQfgU6i8k-1">
          <mxGeometry x="45" y="255" width="60" height="30" as="geometry" />
        </mxCell>
        <mxCell id="JKTL-fcDX_-RQfgU6i8k-26" value="" style="verticalLabelPosition=bottom;shadow=0;dashed=0;align=center;html=1;verticalAlign=top;strokeWidth=1;shape=mxgraph.mockup.navigation.scrollBar;strokeColor=#999999;barPos=98.563;fillColor2=#99ddff;strokeColor2=none;direction=north;" vertex="1" parent="JKTL-fcDX_-RQfgU6i8k-1">
          <mxGeometry x="1037.5" y="250" width="20" height="500" as="geometry" />
        </mxCell>
        <mxCell id="JKTL-fcDX_-RQfgU6i8k-27" value="&lt;span style=&quot;box-sizing: border-box; font-weight: bolder; color: rgb(134, 144, 153); font-family: &amp;quot;Source Sans Pro&amp;quot;, -apple-system, BlinkMacSystemFont, &amp;quot;Segoe UI&amp;quot;, Roboto, &amp;quot;Helvetica Neue&amp;quot;, Arial, sans-serif, &amp;quot;Apple Color Emoji&amp;quot;, &amp;quot;Segoe UI Emoji&amp;quot;, &amp;quot;Segoe UI Symbol&amp;quot;; font-size: 14px; text-align: left; background-color: rgb(255, 255, 255);&quot;&gt;IPTV version&lt;/span&gt;&lt;span style=&quot;color: rgb(134, 144, 153); font-family: &amp;quot;Source Sans Pro&amp;quot;, -apple-system, BlinkMacSystemFont, &amp;quot;Segoe UI&amp;quot;, Roboto, &amp;quot;Helvetica Neue&amp;quot;, Arial, sans-serif, &amp;quot;Apple Color Emoji&amp;quot;, &amp;quot;Segoe UI Emoji&amp;quot;, &amp;quot;Segoe UI Symbol&amp;quot;; font-size: 14px; text-align: left; background-color: rgb(255, 255, 255);&quot;&gt;&amp;nbsp;2.0&lt;/span&gt;" style="text;html=1;align=center;verticalAlign=middle;whiteSpace=wrap;rounded=0;" vertex="1" parent="JKTL-fcDX_-RQfgU6i8k-1">
          <mxGeometry x="922.75" y="765" width="114.5" height="30" as="geometry" />
        </mxCell>
        <mxCell id="JKTL-fcDX_-RQfgU6i8k-28" value="" style="shape=ext;double=1;rounded=1;whiteSpace=wrap;html=1;" vertex="1" parent="JKTL-fcDX_-RQfgU6i8k-1">
          <mxGeometry x="15" y="297.5" width="373" height="150" as="geometry" />
        </mxCell>
        <mxCell id="JKTL-fcDX_-RQfgU6i8k-29" value="" style="shape=ext;double=1;rounded=1;whiteSpace=wrap;html=1;" vertex="1" parent="JKTL-fcDX_-RQfgU6i8k-1">
          <mxGeometry x="400" y="300" width="340" height="70" as="geometry" />
        </mxCell>
        <mxCell id="JKTL-fcDX_-RQfgU6i8k-30" value="" style="shape=ext;double=1;rounded=1;whiteSpace=wrap;html=1;" vertex="1" parent="JKTL-fcDX_-RQfgU6i8k-1">
          <mxGeometry x="400" y="377.5" width="340" height="70" as="geometry" />
        </mxCell>
        <mxCell id="JKTL-fcDX_-RQfgU6i8k-31" value="" style="sketch=0;aspect=fixed;pointerEvents=1;shadow=0;dashed=0;html=1;strokeColor=none;labelPosition=center;verticalLabelPosition=bottom;verticalAlign=top;align=center;fillColor=#00188D;shape=mxgraph.mscae.enterprise.settings" vertex="1" parent="JKTL-fcDX_-RQfgU6i8k-1">
          <mxGeometry x="1012.25" y="137.5" width="25" height="25" as="geometry" />
        </mxCell>
        <mxCell id="JKTL-fcDX_-RQfgU6i8k-32" value="" style="sketch=0;pointerEvents=1;shadow=0;dashed=0;html=1;strokeColor=none;labelPosition=center;verticalLabelPosition=bottom;verticalAlign=top;align=center;fillColor=#505050;shape=mxgraph.mscae.oms.assessments" vertex="1" parent="JKTL-fcDX_-RQfgU6i8k-1">
          <mxGeometry x="409" y="390" width="46" height="45" as="geometry" />
        </mxCell>
        <mxCell id="JKTL-fcDX_-RQfgU6i8k-33" value="" style="sketch=0;pointerEvents=1;shadow=0;dashed=0;html=1;strokeColor=none;labelPosition=center;verticalLabelPosition=bottom;verticalAlign=top;align=center;fillColor=#505050;shape=mxgraph.mscae.oms.capacity" vertex="1" parent="JKTL-fcDX_-RQfgU6i8k-1">
          <mxGeometry x="411.5" y="307.5" width="41" height="50" as="geometry" />
        </mxCell>
        <mxCell id="JKTL-fcDX_-RQfgU6i8k-34" value="" style="html=1;verticalLabelPosition=bottom;labelBackgroundColor=#ffffff;verticalAlign=top;shadow=0;dashed=0;strokeWidth=2;shape=mxgraph.ios7.misc.options;fillColor=#222222;sketch=0;" vertex="1" parent="JKTL-fcDX_-RQfgU6i8k-1">
          <mxGeometry x="260" y="150" width="30" height="20" as="geometry" />
        </mxCell>
        <mxCell id="JKTL-fcDX_-RQfgU6i8k-35" value="" style="verticalLabelPosition=bottom;aspect=fixed;html=1;shape=mxgraph.salesforce.energy;" vertex="1" parent="JKTL-fcDX_-RQfgU6i8k-1">
          <mxGeometry x="530" y="138.75" width="17.82" height="23.75" as="geometry" />
        </mxCell>
        <mxCell id="JKTL-fcDX_-RQfgU6i8k-36" value="Users" style="text;html=1;points=[];align=left;verticalAlign=top;spacingTop=-4;fontSize=18;fontFamily=Verdana;whiteSpace=wrap;" vertex="1" parent="JKTL-fcDX_-RQfgU6i8k-1">
          <mxGeometry x="650" y="185" width="30" height="20" as="geometry" />
        </mxCell>
        <mxCell id="JKTL-fcDX_-RQfgU6i8k-38" value="" style="verticalLabelPosition=bottom;shadow=0;dashed=0;align=center;html=1;verticalAlign=top;strokeWidth=1;shape=mxgraph.mockup.graphics.pieChart;parts=10,20,35;partColors=#e0e0e0,#d0d0d0,#c0c0c0,#b0b0b0,#a0a0a0;strokeWidth=2;fillColor=#f5f5f5;fontColor=#333333;strokeColor=#666666;" vertex="1" parent="JKTL-fcDX_-RQfgU6i8k-1">
          <mxGeometry x="265" y="327.5" width="90" height="85" as="geometry" />
        </mxCell>
        <mxCell id="JKTL-fcDX_-RQfgU6i8k-41" value="&amp;lt;&amp;lt;Stay the same&amp;gt;&amp;gt;" style="text;strokeColor=none;fillColor=none;html=1;fontSize=24;fontStyle=1;verticalAlign=middle;align=center;" vertex="1" parent="JKTL-fcDX_-RQfgU6i8k-1">
          <mxGeometry x="190" y="555" width="100" height="40" as="geometry" />
        </mxCell>
        <mxCell id="JKTL-fcDX_-RQfgU6i8k-45" value="&gt;" style="strokeWidth=1;shadow=0;dashed=0;align=center;html=1;shape=mxgraph.mockup.navigation.anchor;fontSize=24;fontColor=#aaaaaa;fontStyle=1;" vertex="1" parent="JKTL-fcDX_-RQfgU6i8k-1">
          <mxGeometry x="280" y="255" width="20" height="30" as="geometry" />
        </mxCell>
        <mxCell id="JKTL-fcDX_-RQfgU6i8k-46" value="Title" style="strokeWidth=1;shadow=0;dashed=0;align=center;html=1;shape=mxgraph.mockup.navigation.anchor;fontSize=17;fontColor=#666666;fontStyle=1;" vertex="1" parent="JKTL-fcDX_-RQfgU6i8k-1">
          <mxGeometry x="290" y="255" width="60" height="30" as="geometry" />
        </mxCell>
        <mxCell id="JKTL-fcDX_-RQfgU6i8k-51" value="" style="verticalLabelPosition=bottom;shadow=0;dashed=0;align=center;html=1;verticalAlign=top;strokeWidth=1;shape=mxgraph.mockup.graphics.lineChart;strokeColor=none;strokeColor2=#666666;strokeColor3=#008cff;strokeColor4=#dddddd;" vertex="1" parent="JKTL-fcDX_-RQfgU6i8k-1">
          <mxGeometry x="45" y="327.5" width="190" height="90" as="geometry" />
        </mxCell>
        <mxCell id="JKTL-fcDX_-RQfgU6i8k-59" value="" style="strokeWidth=1;shadow=0;dashed=0;align=center;html=1;shape=mxgraph.mockup.containers.marginRect2;rectMarginTop=32;strokeColor=#666666;gradientColor=none;whiteSpace=wrap;" vertex="1" parent="JKTL-fcDX_-RQfgU6i8k-1">
          <mxGeometry x="15" y="460" width="725" height="280" as="geometry" />
        </mxCell>
        <mxCell id="JKTL-fcDX_-RQfgU6i8k-60" value="ENG" style="strokeColor=inherit;fillColor=inherit;gradientColor=inherit;strokeWidth=1;shadow=0;dashed=0;align=center;html=1;shape=mxgraph.mockup.containers.rrect;rSize=0;fontSize=17;fontColor=#666666;gradientColor=none;" vertex="1" parent="JKTL-fcDX_-RQfgU6i8k-59">
          <mxGeometry width="90" height="25" relative="1" as="geometry">
            <mxPoint x="10" as="offset" />
          </mxGeometry>
        </mxCell>
        <mxCell id="JKTL-fcDX_-RQfgU6i8k-61" value="VN" style="strokeWidth=1;shadow=0;dashed=0;align=center;html=1;shape=mxgraph.mockup.containers.rrect;rSize=0;fontSize=17;fontColor=#ffffff;strokeColor=#008cff;fillColor=#008cff;" vertex="1" parent="JKTL-fcDX_-RQfgU6i8k-59">
          <mxGeometry width="90" height="25" relative="1" as="geometry">
            <mxPoint x="100" as="offset" />
          </mxGeometry>
        </mxCell>
        <mxCell id="JKTL-fcDX_-RQfgU6i8k-63" value="" style="strokeWidth=1;shadow=0;dashed=0;align=center;html=1;shape=mxgraph.mockup.containers.topButton;rSize=5;strokeColor=#008cff;fillColor=#008cff;gradientColor=none;resizeWidth=1;movable=0;deletable=1;" vertex="1" parent="JKTL-fcDX_-RQfgU6i8k-59">
          <mxGeometry width="725" height="7" relative="1" as="geometry">
            <mxPoint y="25" as="offset" />
          </mxGeometry>
        </mxCell>
        <mxCell id="JKTL-fcDX_-RQfgU6i8k-65" value="" style="html=1;dashed=0;aspect=fixed;verticalLabelPosition=bottom;verticalAlign=top;align=center;shape=mxgraph.gmdl.x;strokeColor=#FF0400;fillColor=#FF0000;shadow=0;strokeWidth=2;sketch=0;" vertex="1" parent="JKTL-fcDX_-RQfgU6i8k-59">
          <mxGeometry x="175" y="10.37037037037037" width="6" height="6" as="geometry" />
        </mxCell>
        <mxCell id="JKTL-fcDX_-RQfgU6i8k-66" value="" style="html=1;dashed=0;aspect=fixed;verticalLabelPosition=bottom;verticalAlign=top;align=center;shape=mxgraph.gmdl.x;strokeColor=#FF0400;fillColor=#FF0000;shadow=0;strokeWidth=2;sketch=0;" vertex="1" parent="JKTL-fcDX_-RQfgU6i8k-59">
          <mxGeometry x="85" y="10.37037037037037" width="6" height="6" as="geometry" />
        </mxCell>
        <mxCell id="JKTL-fcDX_-RQfgU6i8k-121" value="&amp;lt;&amp;lt;Stay the same&amp;gt;&amp;gt;" style="text;strokeColor=none;fillColor=none;html=1;fontSize=24;fontStyle=1;verticalAlign=middle;align=center;" vertex="1" parent="JKTL-fcDX_-RQfgU6i8k-59">
          <mxGeometry x="312.5" y="140" width="100" height="41.48148148148148" as="geometry" />
        </mxCell>
        <mxCell id="JKTL-fcDX_-RQfgU6i8k-122" value="" style="rounded=1;whiteSpace=wrap;html=1;arcSize=8;" vertex="1" parent="JKTL-fcDX_-RQfgU6i8k-1">
          <mxGeometry x="750" y="297.5" width="270" height="282.5" as="geometry" />
        </mxCell>
        <mxCell id="JKTL-fcDX_-RQfgU6i8k-123" value="" style="shape=image;verticalLabelPosition=bottom;labelBackgroundColor=default;verticalAlign=top;aspect=fixed;imageAspect=0;image=data:image/png,iVBORw0KGgoAAAANSUhEUgAAAOYAAAEACAYAAACnAAqQAAAAAXNSR0IArs4c6QAAAARnQU1BAACxjwv8YQUAAAAJcEhZcwAADsMAAA7DAcdvqGQAACQbSURBVHhe7d0LVFT3vS/wL28GGB4jIkgQh1gEopgBNYoxRjgkKebh0SY5hZ61moNtV4Lr5p6Ltys3kna1YnqSCzcrp9qensaTrnUC6yY9eu1DamOhMSZgVCCiAhLCiAR5SAZwgOHN/f33bGAYhocR5E/6+6w1i9l7/2fvmb3nu/+PmWE7jRAwxqTirP5ljEmEg8mYhDiYjEmIg8mYhKYc/Clt/xwHKt/F+y2fwjLYp85ljM0FjasHHll2P16JeRbxAfeqc8c5rDFFKLf+9X+hvb8LLk5cqTI210SuRL5EzkTe7DmsMXd+/KryoA9vXlHnMMbmw0NL70OAuw+Ob3lZnWPlMJhex55REt01YFHnMMbmg4+bBkMjw+jZ9Z46x8phO1X0KTmUjM0/kTNHYzjcgWRMQhxMxiTEwWRMQhxMxiTEwWRMQhxMxiTEwWRMQhxMxiTEwWRMQhxMGfk8hOwtr6Hy0cPKrXjLd5Dqoy5jfxM4mNJJxtHtmdgfvAwYaIFxANAvexp5yQewXy3Bvv4cfond6b2n1HvsrlvzGiwxy1B0/rvYYVTnUQ2aGdKN3M9K1Rns62bkmd+p96y4xpSNpw881btjuj6cEEqD/gc48c18WJ7+nXJALTsOIGe5WBKFtx75LdqTnoNeKakKfwl1u36DE5HWSf2K51C447fKY0eezkfd1qdhsC5ikuBgyqa6BCWDAUiJ+3cUr09xEJhl2K2PR7SlGNnncpFWXoAq91hkrBFhrEb+rXb462KRadMnTQ2Lgn6kAUU1NLFsL05s2Im43r9gzwf/jKSKCiDoO8jbEGstzKTAwZRN1ztIOHscBT0+2BzxA5RRjVa59TmbwZ8WZBV9HxEfHMLB+g+R/9mvcMTUDU/vCOyipUWXK1DlFIGEb1AfVfEQ0nQBaG6jWpemMqMTED1Qin2F9LjWOhRd/RdktbQjemnyxFqWLSgOpoxuvI0df0ql8L2N/PZ+6EN2Ii/pgE0tuAyJq6k5m3gYTX//W+QEeQNuOkSLRV2/RVEHNXeX7rQGLfxhxHm2o+yLUzQRiwRvKut0DzLVEV9xywqgeR7+SrCZHDiYEjO2HkfaX76LmIsV6PCIRXqUmBuLnL97A4Vr4hFw6wNkfLwXmmtfKOWtWpB7sw7wj8V+CnJqWASCe+uQpwwk+cPTBegdaEF5R934rfUs8q+Xolx5PJMBB1M2PhEw2H1mabzagib66+lG/cDwndQ0FU3W7yPhwm9xrLXFWsiGsbyU+qn3IG5VLHb7BcB48zjylSUfoqqX1uPSjbxPqH9qeys9jiKlDJMBB1MqUTiU8BrKkg8jb3WstSnqE4vsh6lfiHZUNVcopajdigBNhHJPjLAWh9yj3B/3Dk509MMQ8gMYvKl2rBt9HLDvGtW+mngc2jI+sGTQP40MZVSXyYI/x5SNLgV5G76DVD/q940aaUdJzc+RcFF8ZEKheiQTGf7e6B2i2m+kBQU32pGwwgdH38vAHusjgJjXYFkTBc+uD5FUkDuhNkxZ9xqOREYhGP3oHXaHp3M3rf+ntP5qtQS72+w/x+Rgyopqyl1LqE843IGShgqMftdglGH5Q4h2cbxsdpYhMWw1hfNO1sHmCgeTMQnxN38YWwQ4mIxJiIPJmIQ4mIxJiIPJmIQ4mIxJiIPJmIQcBlNc7VZcHowxNr9EzkTe7DkMprgEdZy/9buYjLH5I3Im8mbPYTDFdeHPt9cqV7vlmpOxuSdyJfIlcibyZs9hMOMD7sWZ7T9TLkEtrnbLGJtbIlciXyJnIm/2HH5XljG2sHhUljEJcTAZkxAHkzEJcTAZkxAHkzEJcTAZkxAHkzEJcTAZkxAHkzEJcTAZkxAHkzEJcTAZkxAHkzEJcTAZkxAHkzEJTfl7zOFL1eh/4y0MffgJ0NunzmWMzQlPD7g89ADc/3kPnNcqVySewGGNKUJp+fvvAbfMcHLmSpWxuabkivIlcibyZs9hjdn7T/uUBw2d5Yt/MzafXDYZAF8tPP8jR51j5TCY3au2Koke6bGocxhj88HJS4OR4WF4155R51g5bqdSn5JDydj8U3LmYAyHO5CMSYiDyZiEOJiMSYiDyZiEOJiMSYiDyZiEOJiMSYiDyZiEOJiL3nq4vXoA7s+vV6fZ1wEHcwG5vn4EmsL36HYEnm8egMfrz8M1Vl04a6vhsvNRuG5frU6zrwMO5gJyWrkSzvcugRO0cFqzFi67n4NHwUfw+renad58eRqeFeegyVUnmZQ4mAut5yoGkp6BJWkneu79R/SfbIPT4y/C88fL1QJzzZ2qavUukxYHUyoU0j3/gaGb7nBOfh4u6lysfBTu7x2H97Vz8P7iHLxK3oDbdE3eqco/9wa8rtJ6fenA7/wI3lepdn776ekfwxYEB1M6v8dQlRm4Z6UazPXwOPIK3KK+xMDLL8DyzJsYGtoA93/NGg/uBNOU/2se+l/+GOJ3fiOnDqDv5QPo//XH0z9GWSe72ziYEhpo+pKamx7Wfub3/gkuq80YOpiO/vwLGC7OQ98b5zGyaj1cVyrFJ5quPC5g8KjZGszuP9N9uhXfuP1tsHnHwZSQizf1A1Uu8cvhNEhN2++L0Vv19kKUdcAoWS1k43bLC1/lMWx+cTAl5KJfDtxqwzDdd/LwAIbMGL581eYmar6TGLpqLW/rdssLX+UxbH45/tci92xU77H55PZeIdzXXEV/zAsYUOch+TV4vb0dKH4TPc/kAT/+T3h/LxCDz30TfafUMhOkwbPyRThfnm35LGi+eBJ4dyMsmeqsGR/D5psYcLPFNaYUlsPl8Ufh9voReP3bdjiZLmDghxQy4SdUa5mWwPXHr42PksY+CbfntqgTdmYsb8TILTrw33h+/LPS290Gm3dcYy4gpcZM0KpTpM+MkYsnMfA//jcGrqnzhOQXoXk9Dc5L6X53P51e3TFSlofeJ9+k5u5yuP/5Pbit7sPQa0no/eVM5QHXt/4Ej8eW0PZoojYP3Y++OeNj2PyyrzE5mIuIU8J2uIQAI6V/xZBtcMXX8nZTv9Ru/tTlR5f1Y/joxxOCN91j2PzhYDImIe5jMrYIcDAZkxAHkzEJcTAZkxAHkzEJcTAZkxAHkzEJOQ6mp4dyeTDG2PxSckZ5s+cwmOIS1M6xky8/zRibWyJnIm/2HAZTXBd+6NNK5Wq3XHMyNvdErkS+RM5E3uw5DKbz2iho/t+vlUtQi6vdMsbmlpIrypfImcibPYfflWWMLSwelWVMQhxMxiTEwWRMQhxMxiTEwWRMQhxMxiTEwWRMQhxMxiTEwWRMQhxMxiTEwWRMQhxMxiTEwWRMQhxMxiTEwWRMQlP+HrPUdAsHLtXh/eYvYRniH0szNpc0Ls54JHgJXlkbgXidrzp3nMMaU4Ry66nzaO8fhIvT2FUUGWNzRORK5EvkTOTNnsMac+fpT5UHfXizXZ3DGJsPDy0NQIC7K45vu1+dY+UwmF7vFiqJ7hocUucwxuaDj6sLhiiCPc8mqXOsHDZlRZ+SQ8nY/BM5czSGw6OyjEmIg8mYhDiYjEmIg8mYhDiYjEmIg8mYhDiYjEmIg8mYhDiYsolYhbzNq5CuTt6x2axvrrc5R9LXrUXeulB16m/L4gumNhjZWzeiMiVBuRVvXYVUrbrs6yAoCKn6IGxWJ+/YbNY319ucI5vDgpEa5qdO/W1ZZMEMxdGktdi/XAMMWGAcAPQheuQ9Go/9agm2OGUkbsfI4zHqFFtcwYwNRYpXPwrOn0bMqXLsOFWMkD9dwr6KehxUi7DFyZN/XTiBw1+XOOWfUu9JZmMCRla5oeDsaeyoU+fZMUREITsmBIlaV+Vg93abcPhCKfY1+uGtb67H7qEGxL1fA6NaHvp1qNvgj6oKWmc1TYZH4q37w5DoTeeskUEYm65h9wdGlKvFx2h1yFwTiX2hWgS70zSVrbpWix0lDeq6w3DiqVUIaKhCccAqZARp4IlhGG/UIul0/dj29d9YixOxQYj2oO0NWlDUNIi4MGcczS/GpAuAz7jN2a1vTrcZaUBdrBuOne+AYXS/0ToLLpViR5VFlFAY1qxD3upA6zaHaB03riHtjNivYj9FItHLWdk/veK3E30m7PtdOQyPJ1O/txl7v9Qie6U3/Ol4dpgakHayGgXW1Spdm5yN6v4Vy7vbkHOmHAdNYuHoMaiFMZi6PP6uMBrPIaKkU3moTEZSk9V7VrSXFpGqVpQMuiNlw4Mo3hgGgzp7nAa776WDb2lB9tlLSLvQgCo3HTJiI6FHJ/Jv9cF/Cb3RbPqkqSv8oR/uQhGFEsExOLEpHHGWRuwpPIukT+noLluFvE06a2FbvmFIDwGKP6tGWsklZH0xgGh9BA5FqMtp13q6ucLwjWikoQ376PkcbB2GPnTleJlQ2l5cMPT9Jhy8QM/3igmaJfQGVBdPMtM2Z7O+ud6mszMC3LXI2ECFGmuojBFFQxqkREeNDSbpo+NRRCeCEHMj9tI69n7ejYB7VqEoKZyOSxtyy6+goIsKdrUh/fwVpJfX2wQvCNkBZuTQ/ttr7IanLgzZ66kro9Dhra33IdO/H0fOlyKusAZFwzpkJ8QgUVluPQbREauQMtyCrJJKZBnlC6UjiyuY5lokfEwHrdsNm1dFoezb21H5cKTN4I8FWac+QkRhJQ4am5FfU40jpkF4emuxi5YWVZhQ5aRFwurRAxuMtCXuaG5rRi5NZd63DNEDFKL36XEtZhRVXURWcz+il4bSG8hO40XEHDuL3RcbkE/bOniG1g136IPU5aretjqEFFbjMJXJOtdGtcx4mcwo2p6zGUc+KEdWDT3fK5VIaB6vZSaZYZuzWd9cb9NqGMVXTiOJToT5xlrsuUHr89Sog0kUlFU6+Pe0Io32q9gPhy+cQ3qDBf7LKGTBVGNfb0a7aLeNDCjbyL9uGmsBoKsVcQV0UhOPK2lEcT8F3U/deJQeu/0HUVB+DntrTShvqcfuyyY0++qQbnPy9R8wUS0r3hONyG9WZ0pucQVToLPyjj/+lcJXg/x2qoGWhyPvkXibWlCDRDpbn0hOQNO3kpCzzBVw90C0WGSms3k7NauWijM10YcgzrMfZdcbaUKHBB8q6+SNTHXEV9yyAmieh7sS7El0ocjeHI+yp7bD8kyIso0Q73DrMkfMQ+hV7wrRGlq3+Rb2mtUZszHNNmezvrne5hibDpFxxPb3hTro6TzYYe4YrwVJQZsFHfCYdCKbZGRoPKR2EgM18B9xRnTU+PGqjPal2t8NwTafsnR0Tdz2YrD4gqky0tkx7eRpxJSb0OFBZ0gleTrkPLYJhbGBCOhsQsaZYmio+TPOgtyb9I4M0GE/BTl1hS+Ce28hT+mvusPThWq4fgvK283jt5ZW5Ne3Te5jRq1DU3IMMgLojF11CQnv1aKIzuaz5wfN7Q54TLvN2axvrrc5G9ScpP3qGC2j88RXFexCKx4egNH2eLWbcMzYhIIOtdAitbiCqdXCYNNEEYxVFjTRX0936gfqw5FGf4oqPkLCOSOOtUxuohkvtFE/1Rtx39BRM8gdxtZ65CtLmiHGKjxdBpFH/SDRnxq7na9HkVJmXA6d6oN7mqmZRc3dGgfBnVEnmgbpD9Xms/1gf/ptzmZ9c73N2biFpj5qTrprJnQH9D5uVLP1o+kO/q1UvplWTOHsuG53vEqqkbtImqxTWUTB9MOhBzei7NEE5EVT80jM0lL/JYn6THSAq24ow3DEGQEaa3rFCGvxcm/l/rhanKAmsGF5FAzeVDtS32TUPiPVvl6BOLR1fGDJEKFHxlRfPnFxxmZlU1pk0GMSxKjlbThM/dheTx0yNwdbX49OjxPBo/3fKUyzzdmsb663OTPqv3/Rjd6AEBwVg05iVmgk8sK16O24iVy1nVploTOGlw+y7U680yprQlGfO1Li1iFjdHyOmt37IwPVicVrEQWzE3s/oX5ljwdSDfGoS03GyBPx2B80jJKqK9aPT4wNOCpCF7UJlmeTUfdAENpbOqkvM9HBJnpz+npDb+7EYdsza3Up0qrM0NwjBpaSlHWUPbASaUGTv31y+Fobmj2CkPc4lfv2JmR7m1B0O/02YiyjWqixD3r9WuvreXQl9F+a6a3s2EzbnM365nqbs1F0rhz7rvchejVt89u0zW3hMAy2IetM5VhLJJdOis0ufthP2xl5dhNy1PnTq0fS2XqUuwXh0GPJ1P+lxz4Wg30rddJ9i+l2OS2qzzFHUU25K5D6hEP9KLEdwVMZQoMR7eJ42exokLjCD8FUE0+7DvV59HY2o2C84r19ukCk+jmjua115jf9bLY5m/XN9TZnQ10PejoddjPuZDv6ZUHY7EX182xej4TsP8dcnMFk7GtmcX/BgLG/ERxMxiTEwWRMQhxMxiTEwWRMQhxMxiTEwWRMQg6DKa52Ky4PxhibXyJnIm/2HAZTXII6LmDy5acZY3NL5EzkzZ7DYIrrwp83dSpXu+Wak7G5J3Il8iVyJvJmz2Ew43W+OJO8QbkEtbjaLWNsbolciXyJnIm82XP4XVnG2MJyWGMyxhYWB5MxCXEwGZMQB5MxCXEwGZMQB5MxCXEwGZMQB5MxCXEwGZMQB5MxCXEwGZMQB5MxCXEwGZMQB5MxCXEwGZPQlL/HLDXdwoFLdXi/+UtYhmyvEMwYu1Pi//yIfyki/nuBox9KO6wxRSi3njqP9v5BuDjd7iWIGWMzEbkS+RI5E3mz57DG3Hn6U+VBH968g8v9MsZmJP7vj/gXI8e33a/OsXIYTK93C5VEdw0OqXMYY/NB/FMu8f9/ep5NUudYOWzKij4lh5Kx+Sdy5mgMh0dlGZMQB5MxCXEwGZMQB5MxCXEwGZMQB5MxCXEwGZMQB5MxCXEw500osjevRfbkK6wtKINOq95bLHTI3LAWh6J16jTRamGY8WVo6LVq1PuLzwIGU4PU2HUoTklApbglr0N2+OLdkZP5YZc+GLuC1EkZbExA2WObULlRnV4UtEgJD0ba8tEkhqHwkU0oeyQeGeocRzISqQy91sJIdcYis2DBTN+6EXlrAqF3HoSxZxDwDsT+LbQj71MLsDsUg8rU7SiMUieFRhOKOujWqE4vSm0oaDGjvIX+qnMyErdj5PEYdcqqoMmEcpOJ/qozFpkFCuYqpIe4o/lGNUL+eA47PjiHmOPFSCuvRe4VtQibe43VSCooxd5FHUwLcj86i7iP6mFU53g6+GWiseoi4k5eRK5ZnbHIOPx1iVP+KfXefBFn81AE3KhEyAdTvEt0oTgUG460Zd7wF1ebH7Sg6DN6Y5W3YfPGTShaMYzDfz6HfWM7PhhHn7gPCeZaWmc9tYCCkbNxFTKCNMqB6+huQ86Zchw0qcVtGCKikB0TgkStq1K2t9uEwxdKsU99aoceS0JKVw1yh8KQvZKej1ifqQFpJ6vHztrQhiFv6yrs8qN1YBjG1jZ0BATB84tTiDmrlrGlPr90en5ifb193ThWUY60zyzKskObViMt0N26rZ5O5JVfwt56WiZEGlAX64Zj5ztguD8Mid50fqX9U3CpFDuqqMyGTbDoveHpSvOHhtFLR7jKWIi4Tnrc/d6o+vQj7KiZxXpIxrYHkePfjX2/K8dhZY51f6SjERp6/VZaZIj+tLpvevvMOHLh4vjznWCmsoHISYoa2y8dHc0ocwlGXE8NAgrpuJLx7XfjxFORSPRyVvZ5r/jdRZ/J+lyVfQAcee8s9ooHielgC/ZdHUbG2mBEe4iyZhw+S8tH34LacBzdFoEU8T4YXZ8wuk51cj6MpCar96wWqMY04ljbMIKXR6EuOQYZNv36Ufp7QmkH9eHo5UtIK6nG4VtuSIxchRzqapRc70aTux8SV9v0SfUhSNAOo7JZHDwd3tp6HzL9+3HkfCniCmtQNKxDdkIMEq2lbWiw+95ARFtakH2WtnWhAVVuOmTERoKOq0K8wfWhkcgOMCOHyuw1dsNTRyFdP7r9QLy1LRKp2gEUVVYj7Wwdipz9Ee2uLp5EfX6BLiijk414fUc6huHv4UrLxLruo30yhKIK8dprUTREb+ZNBrwVan00nJ0R4E7zNoRQLVhDZYxURoOUaHpDi+Wf1yL9MzM6MIiSmitIP38FWZ+rj3N1g+foUZ9pPcRTlHcTb/xxYn8ooVdlJq7HoRXO9HzLqZaqxBGzhtYZg0x1ua3py2qQmbQWmcvcYKTXoBx3sxZxdgM949tvQ275FRR00d2uNuV1ppfXW0+WLtYyY89bTPtQ6GO1KK8Wx7kZVa702mOj1ONMx4SO4S4XCuGfTyGimN4Hw85oaqkbX+ddtEDBtCDrfWpm3LAgIJBqxseS0f64ATk2gz/GinOI+EMp9lxpRr6xAXvrbqHDRQODeHM205v1FtV0S8PHwpO6whfBvR3IFyfxKD12+w+ioPwc9tZSX6OlHrsvm9Dsq0P6pNE8ei6nPkJEYSUOGmlbNRQS0yA8vbXYpZZQ9LQiruCSUuZwSSOK++lc4KeO7ESFY7evM8o/p5rmYgM9XyP2nLo51tSaRHl+ovw5JNGJQHl9hWex4zJV/2sikOYLlNeUYrfy2o3YTS2AkhFvpMWMvlphGMVXTquPr8Ue2pfw1GCzWGRqQ77Ferq3WMQ6mlHgoKVgNc16ZkMbg/RgV+W1777SRv26Rux9vxHlbr4UcLXMqJnKavVIX+ZKXZwaxJ0zKvsl60wjymhfO0atqOvNaBdtvpEB5XXmXzdNvd+d+nDsz9RlEvu15hKOtImxDW/1OAcjgfZ7VctFHKZ9ZayvQV77IPRL/IHp1jlPFiiYQhv2fVCMgD9Sk9FoRq93IDLF4E/0eDj1y8Jx6OGNqNy5HRaDDv5wRQjtJ3FADjbTm9jfH5lK0IKRtoT6rKZWHKGpxEBqBo04IzpKHfEVt2hferwbgkdrnQk0SKRa4kRyApq+lYQcenPA3QMT3lcjQ1MfHH8PWnc3yi44arpNpjy/Kcon+rvTWd6CsnKbZdQ8r+yhvHj5TqzxbTohxpE7+L9Md7IevQ+dHIcREmQY39cpQTSPjpWfWmbUTGVDNQihWr6yeb46wcOwTNnntKCDcurpOt58C6BaFgPU6lCn76YFDKbKbEJuyVmEFFBzs98ViXprrZAYtwlliauQ4taFvLKLiHm3EVXKEivj1Q6UU38l8T4KMjVj4zz7UVZvPaDBLtQpHR6Asd2M8rGbCceMTSjoUIrY0CFHDKvHBiKgswkZZ4qhoabq7dgsDuBtUJ7fFKZbJppjwepdaSjNxWE0ddru604UXGvGsVa1zKiZyrq6TGgy311GZFMXKSRsLcoeXIu8hxOQsWQYRbW1d722FBYomA4+/DXXw9hLf92oL0lvv8yVVBW21iLiFDUxHTUlzNUo+HIY0QFhSAz1RnB3B3LVQvnmPnoTu6Djuuij2d6qkdtsLTNGH440OkkWVXyEBGo+HWuZXa1nq8RCp1qqjUNm+WUC5fnBA3rbjzJU1mX26wpFiOivWrqRb50hj/Y+NIu3UY/oE07c31l1aplRM5XtHqB+sSsCfOzeG3dJtJcHeukEXuXhTbV4Bw4Xn0WSOgh2ty1IMDevX4fiRzehcnM4EpWmKDUlY+Opn0bdx442FCmlqFnh5gGDuCNGMJOXTmxakqwb1AT2D8ShJRoYv2wYexzKmlDU546UuHXjA0u6UOyPDFQn7DkjQGPtfOrDI1G83Fu5P2ufUT92yB2JMWuRqqxGi/0PL6WDOwXl+VHr4L547FefnyGSztLr6A05+tzXjj53DTIe1CPRcxBFRjGUOkuN/WinN7k+cKrXPDu57fTGdBd9QBEWDVI3bMJu666yMtbjBLVCDBFrx8cItDpkRodNfv0zlTW2ooxOzobwGHW/iO1Ra2jKQTSrKnFi9PJBtu3zum3hSNG5ore7CWnU30/4oBJZDkeV744FCWbJhSvYd60PISsjUfhEMkZSH0ThGh16b9Yj/bRojjbj8HUKnS4cZc8mYeTx+7BrwIQS+0GAyzcpEN6I9ragpNZ2dKMeSWfrUe4WpAwsWZ6hdTwWg30rdZMHNYwNONo+DEPUJlieTUbdA0Fob+mk8+VtMNdgd0UbmryDkae8nk3Y50VNbeoXOiaeXwPKnXTIpuc38u1klMUHwqAR70brcy9xsT73kW8/iENhbqiquYSk0U8nZoP6pcdMw9CvMCivq2nbV2wE04mioJdOIoYHleN0JNiCnC9s37Am7DlTg2N9WmRuoTLieD0Rj+xVOqSoJcbNVLYROz6x2S9ie8sHUNwxfb8312hCs4sf9j9O63t2E3LU+benHrmNFgSHGZSPLkZvlm/Re9NwZye3r8JpYT7HHEU15Qo/6lcNo7mtFUX2HXNdIFL9nB0vmyX9siBs9qKoz7AOQ2gwol36UXJHI3BapIjPD3s6Z90kVrbrPogqYxv1mSeabtlszc3rUo/TEDWlG6fZicrxckVH53SjwKppy85ye7ao5t0V6I7e2WzbEW0kylJC0V5xAQe7qWukdPXdsGNNFFLdTdh7tPSufo65wMFkTBIbEjCiH8TB984hS50l7E9OoiayCWnHyue1f8/BZMyR4BhUbguFvrcTBa0WiHFI/4BApGiHUVBxbuybUPPFPpgLNCrLmGSaKxFzqhK5TQMICdDCEKAB2hqw59TpeQ+lI1xjMiYBrjEZWwQ4mIxJiIPJmIQ4mIxJyGEwxdVuxeXBGGPzS+RM5M2ew2CKS1DHBUy+/DRjbG6JnIm82XMYTHFd+POmTuVqt1xzMjb3RK5EvkTORN7sOQxmvM4XZ5I3KJegFle7ZYzNLZErkS+RM5E3ew6/YMAYW1gOa0zG2MLiYDImIQ4mYxLiYDImIQ4mYxLiYDImIQ4mYxLiYDImIQ4mYxLiYDImIQ4mYxLiYDImIQ4mYxLiYDImIQ4mYxKa8veYf3y/CB99cgG3zOIC94yxuear9cGDD6zH449MuE64wmEwRSgbGpvwrSe/iaVLRi8wyRibSze/NOG/fv8nhIWGTAqnw6asqCk5lIzNL5EvkTORN3sOgymarxxKxuafyJmj7iIP/jAmIQ4mYxLiYDImIQ4mYxLiYDImIQ4mYxLiYC6kwV7cMg+qE6MGYenswsCwdcpSfRw/+9XHaLZOsr8RHMyFdPm/8NIvTtuFrhJvH/w1/tSqTvYPomfAPrz2KvHOgeP4VJ1iix8HU3Ka2G/hwN5tCFanHRtUPqQeUKfY4sfBlN3l41SrjjdlG07/Bi+9/CO88NJP8dPffIy6ho+R85PjuIw6/N8Dr4+X7a7D73/1Ol58icq+8nP84kyDTXDVGvZGIX72yo/w4jtncfJf38A71epiYZhq7gPv4LRZnWZ3FQdzofU34dMLZSgeu9WhU12kGOyi2rDXer+1EG//xRVP7v8pfvEvL+M7G0MQEvoAvp8ajyVYgSf/2wt4+R8foNr1Jn7/y3fwadBOHHiVyv5wC/CXX+MXJep6lBq2Ev95vBdP/PBHyPmHTdgQ44nisxXqclJRhvN+ehi06jS7qziYC62/HVera3B57HZzYjBteXjCbaAdDfXtVPu5IiImAhpnV/hqPWmhK7z8fOi+K3DtHIrbIvDNpyLhK46wNg7PPRaBqx/bDiK5YmPKDqyh8m70kCVb4rC6mk4MFuvS85/WYPWGePB1xRcGB3Oh+cTg2e/8A74/dnuA6r4p+G1Bxndj0Hz059h34Jd450K7usBORztuBYQgzOboajSUvrabNsF0g0bkeZRmHTbcW0eBpFp1uALnqyNw//22BdjdxMFcZHyjkvAi9Qtz0uPw5R9+jrdt+4WjPKlm7WpHmzqpEAO7AUunGUTyRMKWWNSdL8Wtmhp8fm8sNmrUReyu42AuJu11uNxq/ejEbfk63L90EBbxiyGq+rwoeT1qMxSRsbjfuRIffqL+nGi4Cb//oAZLYmOnH92NeQAJ5gr8e1ENVsTGgHO5cDiYi8itls9w8pevIlOMvv7kdRzr34Yn4miBXww2rLiOd199FS8dPI7LzpF47gdJ6Dn5f/Ailcv88a9RHLgD//3RpdYVTSkMf/cAUHd9OTbEcjN2QYl/LWLv+f/5inqPyaj/lnmks2tAnRon5vfYzVbK9qkTs9BT/PbI829fVKfY3eAob1xjLkJuWh/4eruqU+PEfDHGY0sp665OTEd8BdBchrdPtmLbw7HWeWzBcDCZ4uofXseLr/8FeOx7eHalOpMtGA4mU6x+6od488AP8cLmAHUOW0gcTMYkxMFkTEIcTMYkxMFkTEIOgymuqSD+fTtjbH6JnIm82XMYTHGhE3FNBQ4nY/Nn9NolIm/2+GpfjC2Q277aF2NsYfHgD2MS4mAyJiEOJmPSAf4/mAI2kGIw+xMAAAAASUVORK5CYII=;" vertex="1" parent="JKTL-fcDX_-RQfgU6i8k-1">
          <mxGeometry x="768.54" y="309.12" width="232.92" height="259.25" as="geometry" />
        </mxCell>
        <mxCell id="JKTL-fcDX_-RQfgU6i8k-67" value="Change page" style="text;strokeColor=none;fillColor=none;html=1;fontSize=24;fontStyle=1;verticalAlign=middle;align=center;" vertex="1" parent="1">
          <mxGeometry x="1610" y="-90" width="100" height="40" as="geometry" />
        </mxCell>
      </root>
    </mxGraphModel>
  </diagram>
</mxfile>
